<?xml version="1.0" standalone="no"?>
<!DOCTYPE svg PUBLIC "-//W3C//DTD SVG 1.1//EN" "http://www.w3.org/Graphics/SVG/1.1/DTD/svg11.dtd" >
<svg xmlns="http://www.w3.org/2000/svg" xmlns:xlink="http://www.w3.org/1999/xlink" version="1.1">
<metadata></metadata>
<defs>
<font id="cinzelbold" horiz-adv-x="1466" >
<font-face units-per-em="2048" ascent="1638" descent="-410" />
<missing-glyph horiz-adv-x="512" />
<glyph horiz-adv-x="0" />
<glyph horiz-adv-x="682" />
<glyph unicode=" "  horiz-adv-x="512" />
<glyph unicode="&#x09;" horiz-adv-x="512" />
<glyph unicode="&#xa0;" horiz-adv-x="512" />
<glyph unicode="!" horiz-adv-x="550" d="M118 1437h315l-38 -661l-73 -353h-95l-72 353zM125 127q0 62 43.5 105.5t104.5 43.5t104.5 -43.5t43.5 -105.5q0 -61 -43 -104t-105 -43t-105 43t-43 104z" />
<glyph unicode="&#x22;" horiz-adv-x="741" d="M78 1035q43 134 52.5 211t-3.5 188l219 28q2 -45 -8.5 -104t-35.5 -126.5t-76 -125t-120 -82.5zM398 1035q43 134 52.5 211t-3.5 188l220 28q2 -45 -9 -104t-35.5 -126.5t-76 -125t-120.5 -82.5z" />
<glyph unicode="#" horiz-adv-x="1175" d="M41 444v99h237l66 376h-213v99h231l73 416h103l-73 -416h306l74 416h103l-74 -416h220v-99h-237l-66 -376h213v-99h-231l-78 -444h-103l78 444h-307l-78 -444h-103l79 444h-220zM381 543h307l66 376h-307z" />
<glyph unicode="$" horiz-adv-x="1140" d="M93.5 268.5q15.5 106.5 57.5 174.5h18q-11 -150 79.5 -257.5t248.5 -124.5l40 529l-219 146q-108 61 -157.5 157t-38.5 211q13 163 127.5 260.5t293.5 96.5h61l11 153l85 -2l-12 -156q85 -7 144 -15h128l-2 -25l-1 -16l-24 -260h-19q0 94 -62 156t-170 76l-37 -478 l245 -159q197 -114 184 -339q-9 -192 -141.5 -304t-358.5 -121l-14 -180l-83 6l13 174q-131 6 -234.5 39.5t-153.5 85.5q-24 66 -8.5 172.5zM357 1180q-4 -59 33.5 -104t109.5 -87l64 -42l33 428q-104 -7 -170 -61.5t-70 -133.5zM581 59q119 8 188 72t69 156q0 62 -39 113 t-125 99l-56 38z" />
<glyph unicode="%" horiz-adv-x="1515" d="M68 1113q26 163 130 255.5t259 93.5q64 1 118 -14.5t84.5 -34.5t71.5 -36.5t81 -20.5t85 8.5t72 23.5t71.5 35.5t53.5 28.5l66 -28l-762 -1457l-76 33l716 1357q-116 -70 -228 -59q-53 7 -108 30q44 -90 26 -228q-23 -169 -129.5 -265t-267.5 -96q-149 0 -220 99.5 t-43 274.5zM279.5 883.5q19.5 -78.5 74.5 -78.5q61 1 107 79t65 215q20 140 0 218.5t-75 78.5q-57 0 -102 -79t-67 -217t-2.5 -216.5zM770 345q26 163 131 256t260 93q145 0 217.5 -96.5t51.5 -265.5t-127.5 -265t-270.5 -96q-149 0 -219.5 99.5t-42.5 274.5zM973 115.5 q19 -78.5 74 -78.5q61 0 107 78t65 216q20 139 0 218t-75 79q-57 0 -101.5 -78.5t-66.5 -217.5q-22 -138 -3 -216.5z" />
<glyph unicode="&#x26;" horiz-adv-x="1652" d="M55 443q0 77 27 141t73 108t95.5 73t106.5 47q-91 142 -91 285q0 73 27 134.5t74 103.5t110.5 71.5t135.5 43t150 13.5q128 -1 241 -38.5t163 -107.5l-73 -294h-19q0 72 -15 133.5t-45 111.5t-81 79t-118 29q-103 0 -168 -67.5t-65 -172.5q0 -111 79.5 -214.5 t267.5 -266.5q261 -228 314 -272q27 88 23.5 179t-37.5 162q-46 94 -125 93h-31v20h479v-20h-29q-44 1 -58.5 -26t-14.5 -82q7 -255 -88 -430q129 -112 214.5 -173.5t158.5 -83.5l1 -22q-181 -14 -265 -9q-173 12 -301 85q-159 -97 -402 -97q-100 0 -195.5 13.5t-191 47.5 t-167 85.5t-116 133t-44.5 184.5zM379 484q5 -101 45.5 -182t105.5 -131.5t146 -77.5t170 -27q133 0 233 74q-162 125 -385 319q-174 149 -261 251q-62 -95 -54 -226z" />
<glyph unicode="'" horiz-adv-x="409" d="M65 1035q44 135 53.5 211t-3.5 188l219 28q2 -45 -8.5 -104t-35.5 -126.5t-76 -125t-120 -82.5z" />
<glyph unicode="(" horiz-adv-x="866" d="M184 683q-1 210 67.5 381t208 287t334.5 148l12 -16q-150 -72 -235.5 -282.5t-81.5 -513.5q5 -324 89 -549.5t224 -323.5l-12 -19q-192 59 -330.5 195t-206.5 314t-69 379z" />
<glyph unicode=")" horiz-adv-x="866" d="M61 1483l13 16q147 -24 263.5 -96.5t192 -180.5t114.5 -245t39 -294q-1 -201 -69 -379t-206.5 -314t-330.5 -195l-12 19q140 98 224 323.5t89 549.5q4 303 -81.5 513.5t-235.5 282.5z" />
<glyph unicode="*" horiz-adv-x="794" d="M77 1251v97l55 79l166 -81l92 -90l-57 115l-27 183l92 29l93 -29l-26 -183l-57 -115l92 90l165 82l57 -79v-96l-182 -32l-127 19l114 -60l129 -132l-57 -77l-92 -32l-87 163l-21 127l-22 -127l-85 -163l-92 31l-58 77l129 133l114 60l-128 -19z" />
<glyph unicode="+" horiz-adv-x="985" d="M82 576v117h353v353h117v-353h353v-117h-353v-353h-117v353h-353z" />
<glyph unicode="," horiz-adv-x="471" d="M87 -209q46 18 71 54.5t20.5 84t-42.5 90.5q-42 48 -45.5 111.5t38.5 105.5q33 32 80.5 36t92 -21t65.5 -73q25 -63 26 -125t-25 -117t-65 -95.5t-95 -60.5t-114 -12z" />
<glyph unicode="-" horiz-adv-x="778" d="M65 597l17 68h614l18 -68l-18 -68h-614z" />
<glyph unicode="." horiz-adv-x="454" d="M80 127q0 62 43.5 105.5t104.5 43.5t104.5 -43.5t43.5 -105.5q0 -61 -43 -104t-105 -43t-105 43t-43 104z" />
<glyph unicode="/" horiz-adv-x="872" d="M18 22l738 1451l99 -47l-739 -1455z" />
<glyph unicode="0" horiz-adv-x="1337" d="M94 717q0 343 153.5 544t421.5 201t421.5 -201t153.5 -544t-153.5 -544.5t-421.5 -201.5t-421.5 201.5t-153.5 544.5zM412 717q0 -325 65.5 -492t191.5 -167t191.5 167t65.5 492t-65.5 492t-191.5 167t-191.5 -167t-65.5 -492z" />
<glyph unicode="1" horiz-adv-x="802" d="M86 1311h52q119 0 119 -125v-1055q0 -46 -33 -78.5t-80 -32.5h-43v-20h617v20h-43q-46 0 -79.5 32.5t-33.5 77.5v1332h-20q-79 -59 -208.5 -90t-247.5 -41v-20z" />
<glyph unicode="2" horiz-adv-x="1261" d="M93 0v20q29 33 105 118.5l116 130.5t110 129.5t110 140t91.5 134.5t78.5 139.5t46.5 129.5t19.5 129q0 146 -74 229t-201 76q-136 -8 -208.5 -104.5t-71.5 -274.5h-20l-98 315q76 69 206.5 109.5t262.5 40.5q236 0 384 -111.5t148 -302.5q0 -49 -12.5 -100t-31 -95.5 t-51 -93t-62 -86.5t-74 -83.5t-77.5 -76t-83 -72.5t-78.5 -64.5t-76.5 -60t-66 -51.5h422q90 0 149.5 45.5t114.5 152.5h21l-123 -463h-977z" />
<glyph unicode="3" horiz-adv-x="1153" d="M86 1313q71 64 182 103.5t253 41.5q220 4 347.5 -87t127.5 -247q0 -130 -85.5 -218t-195.5 -96q63 -11 119 -38.5t105.5 -72.5t79 -116.5t29.5 -159.5q0 -102 -40.5 -191.5t-109 -155t-162.5 -111.5t-198.5 -65t-219 -11t-221.5 45l4 21q124 -3 237 31.5t197.5 98 t134.5 157t50 202.5q0 88 -33 155.5t-89.5 107t-125.5 59.5t-148 21l4 21q94 -2 176.5 41t132 125.5t41.5 182.5q-8 104 -75.5 162t-174.5 53q-124 -7 -183 -96t-53 -254h-20z" />
<glyph unicode="4" horiz-adv-x="1267" d="M14 435v20l936 1007h19v-852h89q53 0 79 15t46 50h20l-55 -240h-179v-305q1 -46 34 -78t79 -32h23v-20h-578v20h22q45 0 78.5 31t34.5 76v308h-648zM284 610h378v404z" />
<glyph unicode="5" horiz-adv-x="1134" d="M53 -64l4 21q45 -2 105 9t129 33.5t135 61t121.5 88t91.5 119.5t41 149q6 92 -35.5 159t-115.5 98.5t-180 27.5t-223 -49l-18 11l167 696l529 43q110 0 162 102h21l-80 -341l-570 -44l-61 -230q230 51 396 11.5t257 -160.5t84 -296q-5 -121 -58 -221t-134.5 -164.5 t-184 -107t-207.5 -56t-203.5 -3.5t-172.5 43z" />
<glyph unicode="6" horiz-adv-x="1288" d="M102 610q1 199 58 364.5t168 288.5t287.5 187.5t402.5 53.5l7 -15q-107 -34 -191.5 -78t-145.5 -93.5t-105 -113t-71 -128.5t-43 -148t-21.5 -162.5t-5.5 -181.5q0 -129 10 -220t34 -160t68 -102.5t108 -33.5q61 0 105.5 29.5t68.5 82.5t34.5 115.5t10.5 137.5 q-1 307 -171 330q-50 11 -99 -5.5t-83 -49.5l-14 17q37 63 103 104t141 54t153 -6.5t141 -67.5t103.5 -139t40.5 -212q0 -99 -33.5 -185.5t-97.5 -154t-167 -107.5t-233 -42q-268 -5 -416 159t-147 482z" />
<glyph unicode="7" horiz-adv-x="1114" d="M34 1049h21q23 63 58.5 93t94.5 30h626l-136 -324q-60 -141 -193.5 -409t-224.5 -439h268q40 149 132 424.5t146 407.5l246 598h-980z" />
<glyph unicode="8" horiz-adv-x="1234" d="M80 344q2 240 296 349q-214 154 -214 374q0 179 125 286t325 109q123 1 226 -40.5t165 -122t62 -184.5q0 -112 -74.5 -190.5t-193.5 -111.5q50 -26 79.5 -42t72 -43t68 -49t55 -54.5t45.5 -66t27 -76.5t11 -92q0 -197 -152.5 -308t-409.5 -111q-81 0 -154.5 12.5t-140 41 t-115 71t-76.5 106t-27 142.5zM350 373q-1 -143 66.5 -226t186.5 -89q116 -6 189.5 59.5t73.5 162.5q0 40 -14 74.5t-36.5 62t-65.5 58t-85.5 54.5t-111.5 59q-64 33 -104 57q-98 -102 -99 -272zM427 1170q0 -91 61 -157.5t220 -153.5q48 52 70.5 131t20.5 153 q-2 102 -51.5 165.5t-137.5 66.5q-84 2 -133.5 -56.5t-49.5 -148.5z" />
<glyph unicode="9" horiz-adv-x="1288" d="M95 968q2 217 140 351t391 138q270 4 416 -158.5t146 -483.5q0 -156 -35.5 -293.5t-109.5 -252.5t-180.5 -195.5t-258 -121t-332.5 -30.5l-7 15q107 32 191.5 75.5t145.5 93t105 113t71 128.5t43 148t21.5 162t5.5 179q0 269 -47.5 395.5t-171.5 126.5q-61 0 -105 -29 t-68.5 -81t-35.5 -115.5t-10 -139.5q1 -309 171 -330q50 -10 99 6t82 49l14 -17q-37 -63 -103 -103.5t-141.5 -53t-154 7.5t-141.5 68t-102.5 138.5t-38.5 209.5z" />
<glyph unicode=":" horiz-adv-x="446" d="M80 127q0 62 43.5 105.5t104.5 43.5t104.5 -43.5t43.5 -105.5q0 -61 -43 -104t-105 -43t-105 43t-43 104zM80 911q0 61 43 104.5t105 43.5t105 -43.5t43 -104.5t-43 -104.5t-105 -43.5t-105 43.5t-43 104.5z" />
<glyph unicode=";" horiz-adv-x="804" d="M80 970q0 62 43 105t105 43t105 -43t43 -105t-43 -105t-105 -43t-105 43t-43 105zM87 -209q46 18 71 54.5t20.5 84t-42.5 90.5q-42 48 -45.5 111.5t38.5 105.5q33 32 80.5 36t92 -21t65.5 -73q25 -63 26 -125t-25 -117t-65 -95.5t-95 -60.5t-114 -12z" />
<glyph unicode="&#x3c;" horiz-adv-x="1009" d="M82 580v109l823 386v-127l-660 -313l660 -315v-127z" />
<glyph unicode="=" horiz-adv-x="985" d="M82 374v117h823v-117h-823zM82 733v117h823v-117h-823z" />
<glyph unicode="&#x3e;" horiz-adv-x="985" d="M82 193v127l659 315l-659 313v127l823 -386v-109z" />
<glyph unicode="?" horiz-adv-x="944" d="M16 1280q47 84 151 133t243 49q219 0 338.5 -93.5t119.5 -262.5q0 -60 -18.5 -112.5t-55 -98.5t-73 -82t-90 -87.5t-88.5 -91.5q-29 -32 -42 -48.5t-27.5 -45.5t-10 -59t24.5 -65l-16 -12q-79 35 -123 94t-38 137q3 49 28 93.5t58 81t66 77t55.5 99.5t21.5 131 q-1 124 -56 191.5t-154 67.5q-107 0 -165.5 -80t-57.5 -235h-21zM277 127q0 61 43.5 105t105.5 44q61 0 104 -43.5t43 -105.5q0 -61 -43 -104t-104 -43q-62 0 -105.5 43t-43.5 104z" />
<glyph unicode="@" horiz-adv-x="2025" d="M76 598q10 103 55 211q86 206 259 354.5t406 214t485 31.5q224 -30 380 -139.5t227 -271.5t59 -359q-14 -233 -126.5 -431t-311 -324t-475 -138t-619.5 125l-8 20q171 -69 335 -85t301 16t254.5 106t202 181t137 245t65.5 294q23 275 -91 456t-338 223 q-102 16 -202.5 9.5t-201 -46.5t-189 -104t-167.5 -163t-137 -224q-64 -138 -86 -268t8 -215t111 -87q43 -1 86.5 21.5t87 68.5t74.5 85.5t75.5 103t64.5 88.5l261 354q95 118 112 158h13l138 -827q16 -96 82 -96h11l-3 -16h-424l2 16h15q29 0 57.5 24.5t27.5 63.5l-16 152 h-300q-108 -145 -188.5 -209t-175.5 -67q-77 -3 -143 29t-111 93.5t-67 142.5t-12 184zM818 486h248l-33 305z" />
<glyph unicode="A" d="M-57 0v20h18q47 0 94 29.5t78 86.5l474 1070q25 51 61.5 141t39.5 128h18l609 -1336q31 -59 78.5 -89t96.5 -30h17v-20h-653v20h18q46 0 74 36q16 20 16 47q0 21 -10 46l-101 253h-481l-105 -253q-11 -26 -11 -47q0 -26 16 -46q29 -36 74 -36h18v-20h-439zM426 488h410 l-200 503z" />
<glyph unicode="B" horiz-adv-x="1380" d="M86 0v21h26q53 0 91.5 37t39.5 90v1138q-1 53 -39.5 90t-91.5 37h-26v21h593q115 0 207.5 -20t163.5 -61t110 -109.5t39 -160.5q0 -133 -73.5 -211.5t-178.5 -91.5q159 -16 262 -118q102 -102 102 -259q0 -132 -72 -223t-201 -135.5t-304 -44.5h-648zM551 93h95h3 q141 0 225 82t84 246q0 91 -26.5 156.5t-74 103.5t-107 57t-130.5 19v20q51 0 94 15t79.5 47t57 87.5t20.5 130.5q0 149 -69 218.5t-193 69.5h-58v-1252z" />
<glyph unicode="C" horiz-adv-x="1597" d="M92 719q0 344 224 543.5t613 199.5q294 0 509 -111l4 -351h-17q-105 376 -476 376q-243 0 -383 -175.5t-140 -477.5q0 -303 134 -481.5t363 -184.5q241 0 366 122t172 419h17l20 -353q-166 -274 -575 -274q-251 1 -438 89.5t-290 258t-103 400.5z" />
<glyph unicode="D" horiz-adv-x="1695" d="M86 0v20h26q54 0 92 38t39 91v1147q0 49 -39 83t-91 34h-26l-1 21l743 -1q363 0 574 -192.5t211 -524.5q0 -331 -211 -523.5t-574 -192.5h-743zM550 87h254q220 0 348 169t128 460q0 292 -128 461.5t-348 169.5h-254v-1260z" />
<glyph unicode="E" horiz-adv-x="1292" d="M86 0v20h26q54 0 92 38t39 91v1142q-4 51 -41.5 86.5t-89.5 35.5h-26v21h785q64 1 139.5 12.5t105.5 24.5v-358h-21v24q0 92 -54 148.5t-146 60.5h-345v-596h272q76 1 124.5 51t48.5 125v17l20 1v-474l-20 1v17q0 74 -48.5 124t-122.5 52h-274v-576h269q150 0 251 86.5 t150 243.5h20l-94 -418h-1060z" />
<glyph unicode="F" horiz-adv-x="1218" d="M86 0v20h26q54 0 92 38t39 91v1142q0 50 -39.5 86t-91.5 36h-26v21h785q64 1 139.5 12.5t105.5 24.5v-347h-21v21q0 90 -52.5 144t-142.5 57h-350v-596h272q76 1 124.5 51t48.5 125v17l20 1v-474l-20 1v17q0 74 -48.5 124t-122.5 52h-274v-515q1 -53 39.5 -91t92.5 -38 h25l1 -20h-622z" />
<glyph unicode="G" horiz-adv-x="1712" d="M92 719q0 343 212 543t574 200q163 0 317 -31.5t248 -79.5l4 -351h-17q-55 197 -184 286.5t-306 89.5q-248 0 -381 -176.5t-133 -492.5q0 -301 122 -475t345 -175q117 0 214.5 54.5t132.5 148.5v313q0 45 -27.5 69t-77.5 24h-32v21h575v-21h-31q-50 0 -76.5 -24 t-25.5 -68v-339q-81 -104 -265.5 -184t-413.5 -80q-231 0 -406 90t-271.5 260t-96.5 398z" />
<glyph unicode="H" horiz-adv-x="1763" d="M86 0v20h26q54 0 92 38t39 91v1136q-2 53 -40 90.5t-91 37.5h-26v21h622l-1 -21h-26q-53 0 -91 -37.5t-40 -90.5v-528h664v528q-2 53 -40 90.5t-91 37.5h-26v21h622v-21h-26q-54 0 -92 -37.5t-39 -90.5v-1136q1 -53 39 -91t92 -38h26v-20h-622v20h26q53 0 91 37.5 t40 90.5v522h-664v-521q1 -53 39 -91t92 -38h26l1 -20h-622z" />
<glyph unicode="I" horiz-adv-x="790" d="M86 0v20h26q54 0 92 38t39 91v1136q-2 53 -40 90.5t-91 37.5h-26v21h622l-1 -21h-26q-53 0 -91.5 -37t-39.5 -90v-1137q1 -53 39 -91t92 -38h26l1 -20h-622z" />
<glyph unicode="J" horiz-adv-x="786" d="M10 -391q122 52 180.5 177.5t58.5 281.5v1216q-1 53 -39 91t-92 38h-26v21h622v-21h-26q-54 0 -91.5 -37.5t-39.5 -90.5v-1223q0 -147 -77.5 -261t-202.5 -169q-101 -44 -213 -44q-27 0 -54 2v19z" />
<glyph unicode="K" horiz-adv-x="1550" d="M86 0v21h26q54 0 92 37.5t39 90.5v1136q-2 53 -40 90.5t-91 37.5h-26v21h622l-1 -21h-26q-53 0 -91.5 -37t-39.5 -90v-1137q1 -53 39.5 -90.5t92.5 -37.5h25l1 -21h-622zM616 676l487 642q15 21 15 41q0 13 -6 25q-16 32 -58 32h-20v18h470v-19h-9q-66 0 -125 -26.5 t-99 -72.5l-398 -473l510 -695q47 -64 97 -95t111 -32v-21h-168q-309 0 -440 170q-367 499 -367 506z" />
<glyph unicode="L" horiz-adv-x="1261" d="M86 0v20h26q54 0 92 38t39 91v1135q-1 53 -39 91t-92 38h-26v21h622l-1 -21h-25q-54 0 -92.5 -38t-39.5 -91v-1196h269q150 0 251 86.5t150 243.5h20l-94 -418h-1060z" />
<glyph unicode="M" horiz-adv-x="1951" d="M-18 0v20h32q57 0 99.5 35t50.5 94l170 1313h19l635 -1045l609 1045h19l175 -1313q10 -59 51.5 -93.5t97.5 -34.5h33v-21h-616v19h32q33 -1 59 27q22 24 22 52q0 4 -1 9l-81 742l-384 -664q-9 -14 -21.5 -37.5t-34.5 -84t-23 -104.5h-19l-527 885l-81 -737q-1 -4 -1 -9 q1 -28 23 -52q26 -28 58 -27h32v-19h-428z" />
<glyph unicode="N" horiz-adv-x="1771" d="M61 0v20h38q52 0 89 36.5t38 88.5v1063q0 68 -6 132t-12 94l-6 30h20l1033 -985v810q-1 52 -37.5 88t-88.5 36h-38v21h621l-1 -21h-37q-52 0 -88.5 -35.5t-38.5 -86.5v-1058q0 -68 6 -133.5t12 -97.5l6 -31h-19l-1035 986v-813q2 -51 38.5 -87.5t88.5 -36.5h38v-20h-621z " />
<glyph unicode="O" horiz-adv-x="1798" d="M100 717q0 344 218 544.5t588 200.5t587.5 -200.5t217.5 -544.5t-217.5 -545t-587.5 -201t-588 201t-218 545zM436 717q0 -305 126.5 -482.5t343.5 -177.5t343 177.5t126 482.5t-126 482t-343 177t-343.5 -177t-126.5 -482z" />
<glyph unicode="P" horiz-adv-x="1341" d="M92 0v20h26q54 0 92 38t39 91v1146q0 51 -39 84.5t-91 33.5h-26v21h682q251 0 377.5 -107.5t132.5 -285.5v-17q0 -76 -24 -145q-27 -76 -75.5 -130.5t-115.5 -90.5t-140 -46q-27 -4 -56 -4q-46 0 -96 10q-80 18 -151 65v19h13q14 -1 37 2t51.5 9.5t60.5 23t61 40.5 t54.5 65t39.5 94q13 50 13 103v20q-5 133 -74 210.5t-190 77.5h-136v-1198q1 -53 39 -91t92 -38h26v-20h-622z" />
<glyph unicode="Q" horiz-adv-x="1806" d="M98 717q0 344 218 544.5t588 200.5q369 0 586.5 -200.5t217.5 -544.5q0 -270 -138 -455t-383 -254q179 -37 580 -190q11 -4 17.5 -6.5t16 -6t17.5 -6.5q245 -96 473 -96q28 0 55 1q253 13 421 149l12 -9q-10 -165 -155 -282t-384 -131q-21 -1 -42 -1q-224 0 -507 136 q-92 47 -213.5 123t-204.5 129.5t-187 98.5t-194 54q-365 3 -579.5 204t-214.5 542zM433 717q0 -305 127 -482.5t344 -177.5t343 177.5t126 482.5t-126 482t-343 177q-218 0 -344.5 -177t-126.5 -482z" />
<glyph unicode="R" horiz-adv-x="1529" d="M92 0v21h26q53 0 91.5 37t39.5 90v1137q-1 53 -39.5 90.5t-91.5 37.5h-26v21h703q77 0 146 -12.5t132.5 -42t109 -73t72.5 -110t27 -149.5q0 -67 -20.5 -130.5t-60 -119.5t-105.5 -93.5t-150 -45.5q61 -20 116 -70.5t93 -110.5q7 -12 38.5 -60.5t83 -123t85.5 -117.5 q68 -86 121.5 -120t131.5 -35v-21h-199q-179 0 -296.5 47.5t-184.5 164.5q-49 85 -171 351q-59 124 -139 138v20h63q93 1 162.5 56t95.5 180q8 43 8 84v16q-6 142 -70.5 213t-170.5 73q-30 1 -88.5 1h-67.5v-1195q1 -53 39.5 -90.5t92.5 -37.5h25l1 -21h-623z" />
<glyph unicode="S" horiz-adv-x="1183" d="M108 268q16 106 58 175h18l-2 -32q0 -143 98 -244q106 -109 281 -109h9q131 2 207 67t76 163q0 60 -38.5 106.5t-125.5 104.5l-357 237q-198 133 -198 328q0 20 2 40q13 162 127 260t304 98q114 0 279 -21h129l-27 -301h-20q0 106 -79 171t-209 65q-118 0 -191 -56 t-77 -141v-9q0 -51 32 -90q36 -43 110 -91l391 -254q185 -119 185 -314q0 -13 -1 -26q-9 -200 -152 -312t-389 -112q-139 0 -257 34t-174 91q-15 40 -15 95q0 35 6 77z" />
<glyph unicode="T" horiz-adv-x="1363" d="M29 1116v357q30 -13 104.5 -24.5t137.5 -12.5h824q63 1 138 12.5t105 24.5v-357h-21v24q0 94 -55.5 150.5t-149.5 58.5h-275v-1201q2 -53 40 -90.5t91 -37.5h26l1 -20h-623v20h26q53 0 91 36.5t40 89.5v1203h-275q-94 -2 -149.5 -58.5t-55.5 -150.5v-24h-20z" />
<glyph unicode="U" horiz-adv-x="1681" d="M78 1413v21h590v-21h-34q-44 0 -75.5 -28t-32.5 -70v-782q0 -218 107 -345t291 -127q187 0 296.5 120t110.5 326v808q-2 42 -33.5 70t-75.5 28h-33v21h428v-21h-33q-44 0 -74.5 -27.5t-33.5 -69.5v-797q0 -254 -157 -401t-432 -147q-324 0 -496 144.5t-172 399.5v797 q-1 44 -32 72.5t-76 28.5h-33z" />
<glyph unicode="V" horiz-adv-x="1488" d="M-57 1413v21h652v-21h-18q-45 1 -72 -35q-16 -20 -16 -48q0 -20 9 -45l347 -846l361 846q11 26 11 48q1 27 -15 45q-28 36 -75 35h-18v21h440v-21h-18q-48 0 -95 -28.5t-78 -85.5l-485 -1072q-24 -49 -60.5 -139.5t-39.5 -128.5h-19l-620 1337q-31 59 -78.5 88t-96.5 29 h-16z" />
<glyph unicode="W" horiz-adv-x="1988" d="M-70 1413v21h625v-21h-18q-44 1 -71 -35q-16 -21 -16 -50q0 -20 8 -43l252 -711l371 892l20 -1l407 -900l204 721q6 24 6 44q0 29 -14 49q-24 34 -69 34h-18v21h430v-21h-18q-52 0 -103.5 -30t-73.5 -89l-344 -1103q-5 -14 -11.5 -38t-16.5 -85q-8 -47 -9 -85 q0 -11 1 -20h-19l-447 989l-323 -761q-49 -120 -51 -228h-19l-490 1332q-26 59 -75.5 88.5t-100.5 29.5h-17z" />
<glyph unicode="X" horiz-adv-x="1492" d="M-49 0v20h28q59 0 111.5 32.5t91.5 83.5l404 570l-378 587q-35 51 -90.5 85.5t-116.5 34.5h-30v21h696v-21h-26q-43 0 -69 -42q-14 -22 -14 -43q0 -20 12 -41l256 -395l251 394q12 21 12 41q0 21 -13 43q-26 42 -70 43h-26v21h502l1 -21h-29q-60 0 -114 -34t-90 -85 l-349 -518l412 -636q35 -51 91 -85.5t117 -34.5h27l1 -20h-699v20h26q44 0 70 42q13 21 12 42q0 21 -12 42l-286 445l-301 -443q-13 -21 -13 -42t14 -43q28 -43 71 -43h25l1 -20h-506z" />
<glyph unicode="Y" horiz-adv-x="1437" d="M-63 1413v21h677v-21h-26q-45 0 -69 -41q-13 -22 -13 -44q0 -20 11 -41l291 -533l305 532q12 20 12 40q0 22 -14 44q-26 43 -70 43h-26v21h489v-21h-29q-61 0 -116.5 -34.5t-89.5 -85.5l-403 -642v-502q1 -53 39 -91t92 -38h26v-20h-622v20h26q53 0 92 37.5t40 90.5v505 l-391 643q-32 49 -87.5 83t-115.5 34h-28z" />
<glyph unicode="Z" horiz-adv-x="1353" d="M92 0v19l751 1330h-495q-94 -1 -150 -58t-56 -151v-24h-21v357q31 -13 109 -25t140 -12h651q62 0 130.5 8t86.5 18v-17l-760 -1359h430q133 0 230 87.5t138 238.5h21l-74 -412h-1131z" />
<glyph unicode="[" horiz-adv-x="854" d="M246 -184v1663h520v-21l-213 -78v-1466l220 -78v-20h-527z" />
<glyph unicode="\" horiz-adv-x="872" d="M18 1426l98 47l739 -1451l-98 -51z" />
<glyph unicode="]" horiz-adv-x="854" d="M82 -164l220 78v1466l-213 78v21h520v-1663h-527v20z" />
<glyph unicode="^" horiz-adv-x="1130" d="M72 360h161l335 315l332 -315h161l-426 412h-133z" />
<glyph unicode="_" horiz-adv-x="1024" d="M0 -123h1024v-86h-1024v86z" />
<glyph unicode="`" horiz-adv-x="1097" d="M125 1708q40 117 138 167q208 -187 295 -337l-14 -14q-98 23 -211 73.5t-208 110.5z" />
<glyph unicode="a" horiz-adv-x="1318" d="M-55 0v20h16q43 0 86.5 26.5t70.5 80.5l422 910q2 4 14.5 31.5t24 53.5t25 58.5t22 60.5t10.5 44h17l548 -1150q28 -58 71.5 -86.5t89.5 -28.5h16v-20h-602v20h16q41 0 66 32q14 17 14 39q0 19 -10 43l-80 187h-434l-81 -190q-8 -22 -8 -40q0 -25 14 -41q25 -30 65 -30 h16v-20h-409zM383 402h365l-181 427z" />
<glyph unicode="b" horiz-adv-x="1236" d="M73 0v20h23q47 0 79 31.5t33 77.5v972q-1 47 -32.5 77t-79.5 30h-23v21h550q463 0 463 -306q0 -110 -66.5 -178t-158.5 -76q137 -10 229 -97t92 -222q0 -93 -41 -162t-113.5 -109.5t-162.5 -59.5t-198 -19h-594zM499 81h83q119 0 193.5 69.5t74.5 217.5q0 142 -80 212 q-78 70 -207 69h-4v18q100 0 160 58t60 178q0 246 -222 246h-58v-1068z" />
<glyph unicode="c" horiz-adv-x="1396" d="M69 615q0 301 195.5 470.5t542.5 169.5q134 0 255 -26t207 -67v-326h-16q-50 181 -157 259.5t-268 78.5q-218 0 -332.5 -149t-114.5 -406t113.5 -408.5t313.5 -155.5h4q216 -1 323 103q108 104 146 355h16l24 -308q-64 -105 -194.5 -168.5t-319.5 -63.5q-344 2 -541 171 t-197 471z" />
<glyph unicode="d" horiz-adv-x="1531" d="M67 1208v21h692q330 0 517 -163.5t187 -452.5t-187 -451t-517 -162h-691v20h25q47 0 80.5 32.5t34.5 78.5v971q-2 46 -35.5 76t-81.5 30h-24zM504 82h231q193 0 304 141t111 390q0 251 -111 393t-304 142h-231v-1066z" />
<glyph unicode="e" horiz-adv-x="1153" d="M70 0v21h25q45 0 77.5 31t33.5 76v974q-1 46 -33 76.5t-78 30.5h-25v20h721q55 0 121 10t92 21v-326h-21v19q0 89 -49.5 141t-137.5 53h-295v-497h233q71 1 114 46.5t43 115.5v13h21v-433h-21v14q0 69 -42 114.5t-112 47.5h-236v-486h247q127 1 215.5 78.5t129.5 216.5 h20l-79 -377h-5h-959z" />
<glyph unicode="f" horiz-adv-x="1093" d="M70 0v20h25q46 0 78 31t33 77v973q-1 46 -33 76.5t-78 30.5h-25v21h723q55 0 121 10t93 21v-328h-21v19q0 90 -49.5 142.5t-139.5 53.5h-295v-497h235q71 1 113.5 46.5t42.5 115.5v13h22v-433h-22v14q0 69 -42 114.5t-112 47.5h-237v-439q1 -46 33.5 -77.5t79.5 -31.5h24 v-20h-569z" />
<glyph unicode="g" horiz-adv-x="1495" d="M70 616q0 299 183.5 469t504.5 170q142 0 282 -25.5t226 -67.5v-326h-16q-25 95 -68 162t-100 105t-121 54.5t-141 16.5q-213 0 -325.5 -148.5t-112.5 -421.5q0 -258 101.5 -404t289.5 -146q102 0 183.5 48.5t108.5 138.5l2 247q0 39 -24 60t-66 21h-29v18h527v-18h-26 q-43 0 -66.5 -21t-23.5 -60v-274q-72 -94 -241.5 -167.5t-371.5 -73.5q-310 2 -493 173t-183 470z" />
<glyph unicode="h" horiz-adv-x="1536" d="M70 0v20h23q46 0 78.5 31.5t32.5 77.5v971q0 46 -32.5 77t-78.5 31h-23v21h565v-21h-22q-46 0 -79 -30.5t-34 -76.5v-448h539v447q-1 46 -33 77t-79 31h-23v21h565v-21h-23q-47 0 -79 -31t-33 -77v-973q1 -46 33 -76.5t78 -30.5h23v-20h-564v20h23q46 0 78.5 31.5 t33.5 77.5v443h-539v-443q1 -46 34 -77.5t79 -31.5h22v-20h-565z" />
<glyph unicode="i" horiz-adv-x="720" d="M70 0v21h25q48 0 82.5 31t35.5 77v971q-1 46 -35.5 77t-82.5 31h-25v21h581v-21h-23q-49 0 -83.5 -30.5t-36.5 -76.5v-972q1 -46 36 -77.5t84 -31.5h24v-20h-582z" />
<glyph unicode="j" horiz-adv-x="696" d="M-6 -338q111 48 161.5 158t50.5 247v1033q-2 45 -36.5 76.5t-82.5 31.5h-24v21h582v-21h-24q-49 0 -83 -32t-36 -78v-1035q0 -132 -73 -233.5t-189 -149.5q-91 -39 -192 -39q-27 0 -54 3v18z" />
<glyph unicode="k" horiz-adv-x="1378" d="M72 1209v20h567v-20h-22q-46 0 -79.5 -31t-34.5 -76v-973q1 -46 34 -77.5t80 -31.5h21v-20h-565v20h21q47 0 80 31.5t34 77.5v971q-1 46 -34 77.5t-80 31.5h-22zM563 574l421 556q22 29 8 55t-50 26h-17v18h417v-18h-8q-111 0 -185 -74l-340 -401l431 -599q42 -59 85 -88 t99 -30v-19h-158q-286 0 -406 158q-14 20 -90.5 126.5t-141.5 197.5t-65 92z" />
<glyph unicode="l" horiz-adv-x="1122" d="M70 0v20h25q45 0 77.5 31.5t33.5 76.5v972q0 46 -33.5 77t-79.5 31h-23v21h568v-21h-23q-47 0 -80 -31t-34 -77v-1018h247q127 1 215.5 78.5t129.5 216.5h21l-81 -377h-963z" />
<glyph unicode="m" horiz-adv-x="1767" d="M-16 0v20h28q52 0 89.5 29.5t44.5 81.5l159 1124h17l579 -866l543 866h18l164 -1133q11 -48 47 -75t84 -27h29v-20h-570v20h29q40 0 57 26.5t14 55.5l-80 586l-327 -519q-8 -13 -20 -35t-33 -77t-21 -96h-18l-473 717l-70 -576q-3 -27 15 -54.5t56 -27.5h28v-20h-389z " />
<glyph unicode="n" horiz-adv-x="1595" d="M43 0v20h34q47 0 79.5 30t32.5 75v900q0 62 -5.5 120t-11.5 85l-5 27l20 -1l938 -826v674q0 45 -32 74.5t-79 29.5h-35v21h575v-21h-35q-46 0 -78.5 -29t-34.5 -72v-895q0 -64 5.5 -123.5t10.5 -87.5l6 -28h-18l-941 829v-677q1 -45 33.5 -75t79.5 -30h34v-20h-573z" />
<glyph unicode="o" horiz-adv-x="1591" d="M71 614q0 295 198.5 468t525.5 173q217 0 381 -77t254.5 -223t90.5 -341q0 -294 -199 -467.5t-527 -173.5q-327 0 -525.5 173.5t-198.5 467.5zM385 614q0 -258 111.5 -409t298.5 -151q188 0 299.5 151t111.5 409q0 259 -111.5 409.5t-299.5 150.5q-187 0 -298.5 -150.5 t-111.5 -409.5z" />
<glyph unicode="p" horiz-adv-x="1198" d="M70 1208v21h607q234 0 351.5 -93.5t123.5 -245.5v-18q0 -69 -20 -130q-24 -70 -66 -119.5t-101 -81t-125 -39.5q-21 -3 -44 -3q-45 0 -92 11q-72 17 -138 61v18q4 0 11.5 -0.5t29.5 1.5t43 8t49 20.5t51 36t44.5 58t34.5 83.5q12 51 12 95v13q-3 113 -68 178.5t-178 65.5 h-94v-1019q2 -47 33 -78t79 -31h24v-20h-566v20h25q46 0 77.5 31t32.5 77v973q-1 46 -33 76.5t-79 30.5h-24z" />
<glyph unicode="q" horiz-adv-x="1568" d="M72 614q0 295 193 468t513 173q321 0 514 -173t193 -468q0 -228 -118 -385t-327 -219q79 -15 170 -43t147.5 -48.5t214.5 -80.5q220 -84 413 -84h39q208 10 349 123l11 -6q-6 -156 -131.5 -262t-332.5 -115q-13 -1 -26 -1q-197 0 -447 124q-81 42 -181.5 109t-168.5 114 t-153 86.5t-159 46.5h-7q-320 0 -513 173.5t-193 467.5zM386 614q0 -258 106 -409t286 -151t286 151t106 409q0 260 -105.5 410t-286.5 150q-180 0 -286 -150.5t-106 -409.5z" />
<glyph unicode="r" horiz-adv-x="1345" d="M84 0v20h25q45 0 76.5 31t32.5 76v975q-1 45 -32 75.5t-76 30.5h-26v21h630q71 0 134 -10t121.5 -35t100 -62.5t66.5 -96t25 -132.5q0 -56 -16.5 -109t-49.5 -99.5t-89.5 -79.5t-129.5 -43q56 -17 110.5 -68.5t87.5 -105.5q60 -109 149 -228q60 -82 103.5 -111t106.5 -29 v-20h-172q-169 0 -260.5 41.5t-163.5 154.5q-39 63 -81.5 147.5t-55.5 132.5q-24 60 -57.5 91t-65.5 34v17h52q36 0 65 8.5t59.5 29.5t53.5 63t35 104q7 31 7 69v17q-3 58 -20 101.5t-40 67.5t-54 39t-54.5 20t-49.5 6q-30 1 -70 1h-47v-1015q0 -48 34.5 -78.5t77.5 -30.5 h22v-20h-564z" />
<glyph unicode="s" horiz-adv-x="1052" d="M100 239q15 96 53 155h16q-1 -12 -1 -25q0 -127 86 -217q93 -98 251 -97h3q115 1 176 53.5t61 132.5q0 51 -35 91.5t-118 92.5l-292 185q-183 116 -183 295q0 19 2 40q13 145 112.5 227.5t257.5 82.5q119 0 266 -19h111l-29 -268h-17q0 94 -67 149.5t-188 55.5 q-97 0 -158.5 -44.5t-65.5 -114.5q-2 -27 6.5 -50t30 -43.5t41 -34t55.5 -35.5l324 -199q169 -103 169 -283q0 -12 -1 -24q-10 -174 -138.5 -273t-342.5 -99q-130 0 -231.5 30.5t-146.5 79.5q-13 36 -13 84q0 33 6 72z" />
<glyph unicode="t" horiz-adv-x="1226" d="M21 937v325q28 -11 94.5 -21t120.5 -10h756q56 0 125.5 10.5t89.5 20.5v-325h-21v19q1 88 -48.5 140t-138.5 53h-237v-1022q1 -45 34 -76t79 -31h22v-20h-566v20h22q47 0 79.5 31.5t33.5 77.5v1020h-237q-89 -1 -138 -52.5t-49 -140.5v-19h-21z" />
<glyph unicode="u" horiz-adv-x="1441" d="M56 1208v21h538v-21h-29q-39 0 -65.5 -24t-26.5 -62v-666q0 -188 87.5 -294.5t242.5 -106.5q160 0 250 100t92 278v690q-1 38 -27.5 61.5t-65.5 23.5h-29v21h379v-21h-28q-39 0 -66 -23.5t-28 -60.5v-677q0 -223 -135 -348.5t-380 -125.5q-291 0 -439.5 123t-148.5 347 v679q0 38 -27 62t-66 24h-28z" />
<glyph unicode="v" horiz-adv-x="1302" d="M-55 1208v21h600v-19h-16q-39 0 -64 -32q-14 -18 -14 -43q0 -19 8 -41l287 -667l293 667q10 24 10 43q1 23 -13 41q-24 32 -65 32h-17v19h407v-21h-15q-44 0 -86.5 -25.5t-69.5 -78.5l-417 -881q-91 -202 -96 -250h-18l-544 1127q-28 55 -70 81.5t-86 26.5h-14z" />
<glyph unicode="w" horiz-adv-x="1779" d="M-47 1208v21h575v-21h-17q-37 0 -61 -30q-13 -17 -13 -40q0 -19 8 -42l212 -558l324 719h17l358 -723l166 562q6 22 6 40q0 24 -12 42q-21 30 -60 30h-16v21h386v-21h-16q-47 0 -89 -24.5t-64 -70.5l-303 -929q-4 -13 -10 -35t-16 -77q-7 -42 -8 -75q0 -10 1 -20h-18 l-400 807l-277 -600q-46 -108 -47 -207h-18l-436 1127q-22 51 -64.5 77.5t-91.5 26.5h-16z" />
<glyph unicode="x" horiz-adv-x="1331" d="M-39 0v20h25q97 0 174 90l364 479l-340 530q-29 39 -77 65t-99 26h-24v21h631v-21h-22q-39 0 -63 -34q-12 -18 -12 -36q0 -17 11 -34l217 -336l218 335q11 17 11 35q1 18 -11 35q-22 35 -62 35h-22v21h448v-21h-25q-51 0 -97.5 -25.5t-77.5 -65.5l-313 -456l355 -549 q29 -41 77 -67.5t100 -26.5h24v-20h-634v20h22q39 0 62 34q12 18 12 36q0 17 -11 35l-232 361l-263 -360q-13 -19 -13 -37q0 -17 12 -35q24 -34 63 -34h22v-20h-450z" />
<glyph unicode="y" horiz-adv-x="1300" d="M-63 1208v21h621v-21h-22q-39 0 -60 -32q-13 -19 -13 -39q0 -15 7 -30l273 -470l276 470q7 16 7 31q0 20 -12 38q-22 32 -61 32h-22v21h439v-21h-26q-54 0 -102 -28.5t-79 -72.5l-364 -561v-417q1 -46 35 -77.5t81 -31.5h22v-20h-572v20h24q47 0 80.5 31.5t33.5 77.5v418 l-362 561q-29 44 -77 72t-103 28h-24z" />
<glyph unicode="z" horiz-adv-x="1241" d="M71 0v17l674 1132h-437q-88 -1 -137.5 -53t-49.5 -141v-18h-21v325q26 -11 96 -20.5t128 -10.5h602q58 0 125 8t85 16v-16l-665 -1158h355q137 1 229 78t137 217h21l-88 -376h-1054z" />
<glyph unicode="{" horiz-adv-x="776" d="M174 644v21q25 0 39 1t32 8.5t25 21.5q11 27 -15 163t-26 205q0 92 28.5 169t86 138t153 95.5t221.5 34.5l3 -17q-30 -8 -54.5 -20t-43 -25t-32 -34t-23 -37.5t-15.5 -46t-9 -48t-5 -56t-2 -58v-64.5v-12q0 -121 -11.5 -198t-39.5 -124.5t-64 -71t-97 -41.5 q114 -31 162.5 -123.5t49.5 -294.5q0 -27 -1 -75t-1 -72.5t2 -63t7.5 -59.5t17 -48.5t29 -43.5t44 -31.5t61.5 -24.5l-3 -17q-125 0 -217.5 34.5t-144.5 96.5t-77 137t-25 166q0 61 13.5 149.5t22 132t-0.5 87.5q-15 39 -90 46z" />
<glyph unicode="|" horiz-adv-x="526" d="M205 -369v1803h117v-1803h-117z" />
<glyph unicode="}" horiz-adv-x="776" d="M57 1484l3 17q126 0 221.5 -34.5t153 -95.5t86 -138t28.5 -169q0 -58 -14.5 -142t-24.5 -144t-1 -82q17 -32 95 -32v-20q-75 -7 -90 -46q-9 -44 -0.5 -87.5t22 -132t13.5 -149.5q0 -91 -25 -166t-77 -137t-144.5 -96.5t-217.5 -34.5l-3 17q35 9 61.5 24.5t44 31.5 t29 43.5t17 48.5t7.5 59.5t2 63t-1 72.5t-1 75q1 202 49.5 294.5t162.5 123.5q-61 18 -97 41.5t-64 71t-39.5 124.5t-11.5 198v12v64.5t-2 58t-5 56t-9 48.5t-15.5 45.5t-23 37.5t-32 34t-43 25t-54.5 20z" />
<glyph unicode="~" horiz-adv-x="1009" d="M69 569.5q11 57.5 44.5 96t77.5 58.5t96 21q51 1 115 -30t114 -69t104.5 -70.5t87.5 -33.5q69 -2 107 51.5t2 141.5h120q19 -80 8 -138.5t-48 -96.5t-85.5 -56.5t-103.5 -18.5q-50 0 -112 31t-110.5 68.5t-104.5 69.5t-94 34q-59 2 -89 -45.5t-9 -147.5h-117 q-14 77 -3 134.5z" />
<glyph unicode="&#xa1;" horiz-adv-x="550" d="M119 0l37 661l74 351h95l72 -351l37 -661h-315zM131 1309q0 62 43.5 105.5t104.5 43.5t104.5 -43.5t43.5 -105.5q0 -61 -43.5 -104.5t-104.5 -43.5t-104.5 43.5t-43.5 104.5z" />
<glyph unicode="&#xa2;" horiz-adv-x="1202" d="M59 711q0 262 174.5 407.5t485.5 145.5l14 171l84 -2l-14 -174q174 -16 290 -76v-281h-13q-36 134 -108 199.5t-176 79.5l-78 -946q179 3 266.5 90t119.5 298h13l22 -267q-53 -89 -161 -143.5t-266 -55.5l-14 -176l-81 7l14 172q-266 20 -419 165t-153 386zM351 715 q-1 -201 72.5 -323t213.5 -150l76 944q-181 -3 -272 -125t-90 -346z" />
<glyph unicode="&#xa3;" horiz-adv-x="1234" d="M78 661l31 98h158q-22 667 505 703q129 9 224.5 -24.5t141.5 -92.5l-81 -249h-20q3 148 -52.5 216.5t-166.5 63.5q-84 -5 -137 -50t-76 -125t-29 -192t3 -250h372l-36 -98h-334q-1 -107 -16.5 -189.5t-39 -136t-61.5 -94t-74 -63t-86 -43.5q38 13 85 15t83.5 -2t99 -12.5 t102.5 -12.5q75 -7 145.5 4.5t139 42t127.5 89.5t100 142h21l-93 -352q-94 -43 -225 -59.5t-220 -5.5q-69 9 -152 29.5t-142.5 31t-116.5 4.5q-29 -2 -84 -23.5t-70 -37.5h-20v20q69 91 124.5 255t59.5 398h-190z" />
<glyph unicode="&#xa4;" horiz-adv-x="1107" d="M102 315l120 120q-108 124 -107 288t110 287l-123 122l44 44l123 -123q123 105 285 104t284 -107l126 126l43 -44l-126 -125q106 -122 107 -284t-104 -285l123 -123l-43 -44l-123 123q-123 -109 -287 -109.5t-288 106.5l-120 -120zM178 721q0 -155 109 -265 q72 -72 168.5 -97.5t193 0t168.5 97.5q109 110 109 265t-109 265q-72 72 -168.5 97.5t-193 0t-168.5 -97.5q-109 -110 -109 -265z" />
<glyph unicode="&#xa5;" horiz-adv-x="1437" d="M-63 1413v21h677v-21h-26q-45 0 -69 -41.5t-2 -84.5l291 -533l305 532q24 42 -2 84.5t-70 42.5h-26v21h489v-21h-29q-61 0 -116.5 -34.5t-89.5 -85.5l-271 -431h219v-86h-273l-78 -125v-22h351v-86h-351v-394q1 -53 39 -91t92 -38h26v-20h-622v20h26q54 0 92.5 38 t39.5 91v394h-354v86h354v24l-75 123h-279v86h226l-262 434q-32 49 -88 83t-116 34h-28z" />
<glyph unicode="&#xa6;" horiz-adv-x="526" d="M205 348h117v-717h-117v717zM205 717v717h117v-717h-117z" />
<glyph unicode="&#xa7;" horiz-adv-x="1077" d="M86 894.5q6 93.5 38 174.5t84 152t118.5 122t146 82t162.5 35q69 5 128.5 -7.5t98 -37.5t61 -56t21 -65t-25.5 -64q-25 -33 -54.5 -39.5t-57.5 9t-61 39.5t-64 51.5t-65.5 45t-67.5 20t-69 -23.5q-87 -64 17 -217q56 -81 227 -261l1 -1l1 -1l1 -1v-1l1 -1l1 -1l1 -1l1 -1 l1 -1l1 -1l1 -1l2 -2l1 -1l1 -1l1 -1l1 -1l1 -1l1 -1l1 -1v-1l1 -1l1 -1l1 -1l1 -1l1 -1l2 -2q112 -122 174 -258t71 -258.5t-24 -236.5t-102 -197.5t-172 -136t-226 -58.5q-50 -3 -97.5 2.5t-85 18t-68.5 30.5t-50.5 40t-28.5 46t-4.5 49.5t22.5 48.5q22 31 48.5 40.5 t52.5 0t56.5 -28.5t59 -44t61 -46t62 -35.5t62 -12.5t61.5 24q28 22 37.5 49.5t-2.5 64t-36 75t-71.5 93t-98 106.5t-126.5 126q-90 89 -147 187.5t-77 192t-14 187zM238.5 1013.5q-9.5 -85.5 17.5 -168t83 -160.5t147 -166q82 -80 138.5 -145t101.5 -136t60.5 -140 t2.5 -137q45 85 52.5 168.5t-22.5 167t-87.5 165.5t-147.5 174q-125 128 -183 204.5t-85 159t-23 194.5q-45 -95 -54.5 -180.5z" />
<glyph unicode="&#xa8;" horiz-adv-x="1228" d="M212 1514q0 51 36 87t87 36t87 -36t36 -87t-36 -87t-87 -36t-87 36t-36 87zM690 1514q0 51 36.5 87t87.5 36t87 -36t36 -87t-36 -87t-87 -36t-87.5 36t-36.5 87z" />
<glyph unicode="&#xa9;" horiz-adv-x="1736" d="M123 717q0 152 59 290t158.5 237.5t237.5 158.5t290 59t290 -59t238 -158.5t159 -237.5t59 -290q0 -203 -100 -374.5t-271.5 -271.5t-374.5 -100q-152 0 -290 59t-237.5 159t-158.5 238t-59 290zM217 717q0 -132 51.5 -252.5t139 -208t208 -139t252.5 -51.5t253 51.5 t208 139t139 208t52 252.5t-52 252.5t-139 208t-208 139t-253 51.5t-252.5 -51.5t-208 -139t-139 -208t-51.5 -252.5zM392 718q0 196 141 326t355 130q91 0 187 -23.5t165 -64.5l5 -231h-12q-43 118 -128.5 182t-209.5 64q-127 0 -204 -105t-77 -279q0 -172 78 -277 t207 -107q148 0 242 82.5t113 243.5h12l24 -211q-67 -89 -171 -138.5t-233 -49.5q-140 1 -253 61t-177 164.5t-64 232.5z" />
<glyph unicode="&#xaa;" horiz-adv-x="780" d="M-6 773v10h8q54 0 86 55l234 478q50 112 54 141h9l308 -616q34 -58 86 -58h9v-10h-354v10h9q21 0 35.5 16.5t4.5 42.5l-41 95h-222l-42 -91q-13 -27 1.5 -45t37.5 -18h9v-10h-232zM244 988h175l-85 196z" />
<glyph unicode="&#xab;" horiz-adv-x="1036" d="M82 598l420 -417l19 13l-194 404l191 395l-16 10zM477 598l421 -417l18 13l-194 404l192 395l-16 10z" />
<glyph unicode="&#xac;" horiz-adv-x="1228" d="M82 709v117h1068v-117v-311h-117v311h-951z" />
<glyph unicode="&#xad;" horiz-adv-x="778" d="M65 597l17 68h614l18 -68l-18 -68h-614z" />
<glyph unicode="&#xae;" horiz-adv-x="501" d="M20 1204q0 96 68 163.5t164 67.5t163.5 -67.5t67.5 -163.5t-67.5 -163.5t-163.5 -67.5t-164 67.5t-68 163.5zM66 1204q0 -79 53.5 -132t132.5 -53t132 53t53 132t-53 132.5t-132 53.5t-132.5 -53.5t-53.5 -132.5zM132 1087v4h5q9 0 15.5 6t6.5 15v195q0 9 -6.5 15 t-15.5 6h-5v4h127q37 0 62 -18t25 -48t-16.5 -47t-44.5 -20q18 -4 61 -69q21 -32 42 -39v-4h-35q-17 0 -30.5 4.5t-22 9.5t-17.5 17t-12.5 18t-11.5 22.5t-10 20.5q-13 27 -21 27v4h22q24 3 32 34q3 18 3 25q-2 44 -46 44h-22v-200q0 -9 6.5 -15.5t15.5 -6.5h5v-4h-112z" />
<glyph unicode="&#xaf;" horiz-adv-x="1228" d="M324 1440v133h561v-133h-561z" />
<glyph unicode="&#xb0;" horiz-adv-x="499" d="M49 1159q0 83 59.5 142.5t142.5 59.5t142.5 -59.5t59.5 -142.5t-59.5 -142.5t-142.5 -59.5t-142.5 59.5t-59.5 142.5zM153 1159q0 -41 28.5 -69.5t69.5 -28.5t69 28.5t28 69.5t-28 69t-69 28t-69.5 -28t-28.5 -69z" />
<glyph unicode="&#xb1;" horiz-adv-x="985" d="M82 110v117h823v-117h-823zM82 719v117h353v353h117v-353h353v-117h-353v-353h-117v353h-353z" />
<glyph unicode="&#xb2;" horiz-adv-x="821" d="M69 1377q49 43 129 67.5t165 24.5q143 0 238 -65t95 -173q0 -214 -341 -410h226q54 0 91.5 28.5t69.5 93.5h12l-77 -312h-605v12q30 36 85.5 99t91 104t80 100t71 104.5t45 99t18.5 101.5q0 76 -43 119t-114 38q-73 -5 -114 -65.5t-40 -168.5h-12z" />
<glyph unicode="&#xb3;" horiz-adv-x="712" d="M57 1384q41 37 111.5 57.5t157.5 19.5q132 -1 209 -52t77 -142q0 -69 -47 -113.5t-111 -50.5q79 -14 135 -65.5t56 -142.5q0 -100 -55 -172t-140 -103.5t-189.5 -29.5t-202.5 42l2 12q155 -4 257.5 65.5t102.5 197.5q0 64 -33.5 106.5t-81.5 58.5t-109 17l2 12 q86 -2 144.5 53.5t52.5 136.5q-5 61 -44.5 88.5t-94.5 23.5q-71 -6 -101 -54t-27 -154h-12z" />
<glyph unicode="&#xb4;" horiz-adv-x="1097" d="M415 1538q47 81 129.5 172.5t164.5 164.5q100 -52 139 -167q-95 -60 -208 -110.5t-211 -73.5z" />
<glyph unicode="&#xb6;" horiz-adv-x="1089" d="M102 1059q2 169 117 271.5t285 103.5h355h15.5h18.5t18 1t21 3.5t21.5 6.5t24.5 10.5t24.5 15.5t26.5 21.5t27 28.5l14 -12q-19 -64 -75.5 -112t-141.5 -49v-1047q0 -215 -124 -328l-18 17q27 45 39 92t14 81t2 109v24v1052h-171v-1348q0 -66 -8 -121t-28.5 -112 t-62 -102t-102.5 -73l-14 19q84 87 106.5 161t17.5 228v682q-174 0 -289 103t-113 274z" />
<glyph unicode="&#xb7;" horiz-adv-x="446" d="M76 723q0 61 43 104.5t105 43.5t105 -43.5t43 -104.5t-43 -104.5t-105 -43.5t-105 43.5t-43 104.5z" />
<glyph unicode="&#xb8;" horiz-adv-x="1228" d="M464 -387l2 20q74 0 135 36.5t66 109.5q2 40 -30.5 64t-75 23.5t-82.5 -13.5l-10 20l99 129h98l-86 -100q29 10 67.5 10.5t77 -10t64 -43t23.5 -82.5t-34.5 -91t-82.5 -62.5t-111 -26.5t-120 16z" />
<glyph unicode="&#xb9;" horiz-adv-x="532" d="M69 1374h26q75 0 75 -79v-586q0 -27 -19.5 -46.5t-46.5 -19.5h-25v-12h401v12h-25q-27 0 -47 19t-20 46v755h-12q-52 -34 -142 -52.5t-165 -24.5v-12z" />
<glyph unicode="&#xba;" horiz-adv-x="827" d="M49 1111q0 158 98.5 252t266.5 94t267 -93.5t99 -252.5q0 -158 -99 -251.5t-267 -93.5t-266.5 93.5t-98.5 251.5zM243 1111q0 -137 44.5 -216.5t126.5 -79.5t127 79t45 217t-45 217.5t-127 79.5t-126.5 -79.5t-44.5 -217.5z" />
<glyph unicode="&#xbb;" horiz-adv-x="1036" d="M123 194l18 -13l420 417l-420 405l-16 -10l191 -395zM518 194l19 -13l420 416l-420 406l-17 -10l192 -396z" />
<glyph unicode="&#xbc;" horiz-adv-x="1529" d="M73 1374v12q75 6 165 24.5t142 52.5h12v-755q0 -27 20 -46t47 -19h25v-12h-402v12h26q27 0 46.5 19.5t19.5 46.5v586q0 79 -75 79h-26zM228 15l79 -52l979 1457l-78 53zM723 219v13l591 602h12v-498h56q33 0 50.5 10.5t29.5 34.5h12l-36 -162h-112v-138q0 -28 21 -48.5 t50 -20.5h14v-12h-384v12h14q29 0 49 19.5t21 47.5v140h-388zM915 336h197v198z" />
<glyph unicode="&#xbd;" horiz-adv-x="1703" d="M73 1374h26q75 0 75 -79v-586q0 -27 -20 -46.5t-47 -19.5h-25v-12h402v12h-25q-27 0 -47 19t-20 46v755h-12q-52 -34 -142 -52.5t-165 -24.5v-12zM200 15l79 -52l979 1457l-78 53zM938 747q49 43 129 67t165 24q143 0 238 -65t95 -173q0 -214 -341 -410h226 q54 0 91.5 28.5t69.5 93.5h12l-77 -312h-605v12q30 36 85.5 99t91 104t80 100t71 104.5t45 99t18.5 101.5q0 76 -43 119.5t-114 38.5q-73 -5 -114 -66t-40 -169h-12z" />
<glyph unicode="&#xbe;" horiz-adv-x="1615" d="M63 1384q41 37 111.5 57.5t157.5 19.5q132 -1 208.5 -52t76.5 -142q0 -69 -46.5 -113.5t-110.5 -50.5q79 -14 135 -65.5t56 -142.5q0 -100 -55 -172t-140 -103.5t-189.5 -29.5t-202.5 42l2 12q155 -4 257.5 65.5t102.5 197.5q0 64 -33.5 106.5t-81.5 58.5t-109 17l2 12 q86 -2 144.5 53.5t52.5 136.5q-5 61 -44.5 88.5t-94.5 23.5q-71 -6 -101 -54t-27 -154h-13zM349 15l79 -52l979 1457l-79 53zM826 219v13l591 602h12v-498h56q33 0 50.5 10.5t29.5 34.5h13l-37 -162h-111v-138q0 -28 20.5 -48.5t49.5 -20.5h14v-12h-384v12h14q29 0 49 19.5 t21 47.5v140h-388zM1018 336h197v198z" />
<glyph unicode="&#xbf;" horiz-adv-x="997" d="M78 328q0 60 18.5 112.5t55 98.5t73 82t90 87.5t88.5 91.5q29 32 42 48.5t27.5 45.5t10 59t-24.5 65l16 12q79 -35 122.5 -94.5t37.5 -137.5q-3 -49 -28 -93t-58 -80.5t-66 -77t-55.5 -99.5t-21.5 -131q1 -124 56 -191.5t154 -67.5q107 0 166 80t58 235h20l70 -219 q-47 -84 -150.5 -133.5t-242.5 -49.5q-219 0 -338.5 94t-119.5 263zM372 1306q0 61 43 104.5t104 43.5q62 0 106 -43.5t44 -104.5t-44 -104.5t-106 -43.5q-61 0 -104 43.5t-43 104.5z" />
<glyph unicode="&#xc0;" d="M-57 0v20h18q47 0 94 29.5t78 86.5l474 1070q25 51 61.5 141t39.5 128h18l609 -1336q31 -59 78.5 -89t96.5 -30h17v-20h-653v20h18q45 0 73.5 36t6.5 93l-101 253h-481l-105 -253q-24 -57 5 -93t74 -36h18v-20h-439zM326 1749q39 115 139 166q209 -188 295 -336l-15 -14 q-98 23 -211 73.5t-208 110.5zM426 488h410l-200 503z" />
<glyph unicode="&#xc1;" d="M-57 0v20h18q47 0 94 29.5t78 86.5l474 1070q25 51 61.5 141t39.5 128h18l609 -1336q31 -59 78.5 -88.5t96.5 -29.5h17v-21h-653v20h18q45 0 73.5 36t6.5 93l-101 253h-481l-105 -253q-24 -57 5 -93t74 -36h18v-20h-439zM426 488h410l-200 503zM685 1575q86 148 295 336 q100 -52 139 -166q-95 -60 -208.5 -110.5t-211.5 -73.5z" />
<glyph unicode="&#xc2;" d="M-57 0v20h18q47 0 94 29.5t78 86.5l474 1070q25 51 61.5 141t39.5 128h18l609 -1336q31 -59 78.5 -89t96.5 -30h17v-20h-653v20h18q45 0 73.5 36t6.5 93l-101 253h-481l-105 -253q-24 -57 5 -93t74 -36h18v-20h-439zM412 1561l14 -17l292 133l312 -133l14 17l-314 313 h-23zM426 488h410l-200 503z" />
<glyph unicode="&#xc3;" d="M-57 0v20h18q47 0 94 29.5t78 86.5l474 1070q25 51 61.5 141t39.5 128h18l609 -1336q31 -59 78.5 -89t96.5 -30h17v-20h-653v20h18q45 0 73.5 36t6.5 93l-101 253h-481l-105 -253q-24 -57 5 -93t74 -36h18v-20h-439zM411 1571h24q17 41 61 71.5t97 24.5q43 -5 95 -31 t103 -48.5t99 -22.5q72 0 123 43.5t69 102t6 110.5h-24q-14 -33 -58.5 -60t-98.5 -21q-57 6 -150 53t-149 47q-53 0 -94.5 -26.5t-64.5 -67.5t-33 -87t-5 -88zM426 488h410l-200 503z" />
<glyph unicode="&#xc4;" d="M-57 0v20h18q47 0 94 29.5t78 86.5l474 1070q25 51 61.5 141t39.5 128h18l609 -1336q31 -59 78.5 -89t96.5 -30h17v-20h-653v20h18q45 0 73.5 36t6.5 93l-101 253h-481l-105 -253q-24 -57 5 -93t74 -36h18v-20h-439zM354 1677q0 51 36 87t87 36t87 -36t36 -87t-36 -87 t-87 -36t-87 36t-36 87zM426 488h410l-200 503zM832 1677q0 51 36 87t87 36t87 -36t36 -87t-36 -87t-87 -36t-87 36t-36 87z" />
<glyph unicode="&#xc5;" d="M-57 0v20h18q49 0 98 31.5t79 93.5l469 1049q71 155 93 233q-73 5 -123 46t-50 101q0 65 55.5 106.5t136.5 41.5t135.5 -40t55.5 -106q-1 -59 -49 -100.5t-119 -47.5l588 -1278q31 -65 80 -97t100 -32h17v-21h-653v20h18q45 0 73 36t6 93l-102 253h-477l-107 -253 q-24 -57 5 -93t74 -36h18v-20h-439zM428 488h406l-198 492zM629 1574q0 -47 25.5 -77t63.5 -30q39 0 64.5 30t25.5 77q0 48 -25.5 78t-64.5 30q-38 0 -63.5 -30t-25.5 -78z" />
<glyph unicode="&#xc6;" horiz-adv-x="1988" d="M-49 0v20h16q95 0 181 124l788 1180q21 36 6.5 62.5t-50.5 26.5h-10v21h687q64 1 139 12.5t105 24.5v-348l-20 1v21q0 90 -52.5 144t-142.5 57h-337v-608h263q74 3 121.5 52.5t47.5 123.5v17l21 1v-473h-21v18q0 73 -46.5 122t-119.5 53h-266v-564h273q136 1 236 84 t145 228h20l-92 -400h-1011l1 20h20q41 0 70 29t30 70v533h-326l-308 -508q-28 -55 -3 -90t72 -34h19v-20h-456zM680 738h273v451z" />
<glyph unicode="&#xc7;" horiz-adv-x="1597" d="M92 719q0 344 224 543.5t613 199.5q294 0 509 -111l4 -351h-17q-105 376 -476 376q-243 0 -383 -175.5t-140 -477.5q0 -303 134 -481t363 -184q241 0 366 121.5t172 418.5h17l20 -353q-166 -274 -579 -274l-76 -88q29 10 67.5 10.5t77 -10t64 -43t23.5 -82.5 q-2 -51 -34.5 -92t-82.5 -63t-111 -27t-120 16l2 21q47 0 89 13t75.5 48t36.5 86q2 40 -30.5 64t-75 23.5t-82.5 -13.5l-11 21l94 120q-339 27 -536 223.5t-197 520.5z" />
<glyph unicode="&#xc8;" horiz-adv-x="1292" d="M86 0v20h26q54 0 92 38t39 91v1142q-4 51 -41.5 86.5t-89.5 35.5h-26v21h785q64 1 139.5 12.5t105.5 24.5v-358h-21v24q0 92 -54 148.5t-146 60.5h-345v-596h272q76 1 125 51t49 125v17l20 1v-474l-20 1v17q0 74 -49 124t-123 52h-274v-577h269q150 0 251 87t150 244h21 l-95 -418h-1060zM267 1749q39 115 139 166q209 -188 295 -336l-15 -14q-98 23 -211 73.5t-208 110.5z" />
<glyph unicode="&#xc9;" horiz-adv-x="1292" d="M86 0v20h26q54 0 92 38t39 91v1142q-4 51 -41.5 86.5t-89.5 35.5h-26v21h785q64 1 139.5 12.5t105.5 24.5v-358h-21v24q0 92 -54 148.5t-146 60.5h-345v-596h272q76 1 124.5 51t48.5 125v18h21v-474l-21 1v17q0 74 -48.5 124t-122.5 52h-274v-576h269q150 0 251 86.5 t150 243.5h20l-94 -418h-1060zM626 1575q86 148 295 336q99 -51 138 -166q-95 -60 -208 -110.5t-211 -73.5z" />
<glyph unicode="&#xca;" horiz-adv-x="1292" d="M86 0v20h26q54 0 92 38t39 91v1142q-4 51 -41.5 86.5t-89.5 35.5h-26v21h785q64 1 139.5 12.5t105.5 24.5v-358h-21v24q0 92 -54 148.5t-146 60.5h-345v-596h272q76 1 125 51t49 125v17l20 1v-474l-20 1v17q0 74 -49 124t-123 52h-274v-576h269q150 0 251 86.5t150 243.5 h21l-95 -418h-1060zM353 1561l14 -17l292 133l312 -133l14 17l-314 313h-23z" />
<glyph unicode="&#xcb;" horiz-adv-x="1292" d="M86 0v20h26q54 0 92 38t39 91v1142q-4 51 -41.5 86.5t-89.5 35.5h-26v21h785q64 1 139.5 12.5t105.5 24.5v-358h-21v24q0 92 -54 148.5t-146 60.5h-345v-596h272q76 1 124.5 51t48.5 125v17l20 1v-474l-20 1v17q0 74 -48.5 124t-122.5 52h-274v-576h269q150 0 251 86.5 t150 243.5h20l-94 -418h-1060zM295 1677q0 51 36 87t87 36t87 -36t36 -87t-36 -87t-87 -36t-87 36t-36 87zM773 1677q0 51 36 87t87 36t87 -36t36 -87t-36 -87t-87 -36t-87 36t-36 87z" />
<glyph unicode="&#xcc;" horiz-adv-x="790" d="M13 1749q39 115 139 166q209 -188 295 -336l-15 -14q-98 23 -211 73.5t-208 110.5zM86 0v20h26q54 0 92 38t39 91v1136q-2 53 -40 90.5t-91 37.5h-26v21h622l-1 -21h-26q-53 0 -91.5 -37t-39.5 -90v-1137q1 -53 39 -91t92 -38h26l1 -20h-622z" />
<glyph unicode="&#xcd;" horiz-adv-x="790" d="M86 0v20h26q54 0 92 38t39 91v1136q-2 53 -40 90.5t-91 37.5h-26v21h622l-1 -21h-25q-53 0 -92 -37t-40 -90v-1137q1 -53 39.5 -91t92.5 -38h25l1 -20h-622zM360 1575q87 150 294 336q100 -52 139 -166q-95 -60 -208 -110.5t-211 -73.5z" />
<glyph unicode="&#xce;" horiz-adv-x="790" d="M86 0v20h26q54 0 92 38t39 91v1136q-2 53 -40 90.5t-91 37.5h-26v21h622l-1 -21h-26q-53 0 -91.5 -37t-39.5 -90v-1137q1 -53 39.5 -91t92.5 -38h25l1 -20h-622zM87 1561l13 -17l292 133l313 -133l14 17l-314 313h-23z" />
<glyph unicode="&#xcf;" horiz-adv-x="790" d="M29 1677q0 51 36 87t87 36t87 -36t36 -87t-36 -87t-87 -36t-87 36t-36 87zM86 0v20h26q54 0 92 38t39 91v1136q-2 53 -40 90.5t-91 37.5h-26v21h622l-1 -21h-26q-53 0 -91.5 -37t-39.5 -90v-1137q1 -53 39.5 -91t92.5 -38h25l1 -20h-622zM507 1677q0 51 36 87t87 36 t87 -36t36 -87t-36 -87t-87 -36t-87 36t-36 87z" />
<glyph unicode="&#xd0;" horiz-adv-x="1695" d="M86 674v86h161v536q0 49 -39.5 83t-91.5 34h-25l-1 21l743 -1q363 0 572 -192.5t209 -524.5t-209 -524t-572 -192h-744l1 20h26q54 0 92 38t39 91v525h-161zM554 87h254q221 0 351.5 169.5t130.5 459.5q0 291 -131 461t-351 170h-254v-587h266v-86h-266v-587z" />
<glyph unicode="&#xd1;" horiz-adv-x="1771" d="M61 0v20h38q52 0 89 36t38 88v1064q0 68 -6 132t-12 94l-6 30h20l1033 -985v810q-1 52 -37.5 88t-88.5 36h-38v21h621l-1 -21h-37q-52 0 -88.5 -35.5t-38.5 -86.5v-1058q0 -68 6 -133.5t12 -97.5l6 -31h-19l-1035 986v-813q2 -51 38.5 -87.5t88.5 -36.5h38v-20h-621z M545 1571h24q17 41 61 71.5t97 24.5q43 -5 95 -31t103 -48.5t99 -22.5q72 0 123 43.5t69 102t6 110.5h-24q-14 -33 -58.5 -60t-98.5 -21q-57 6 -149.5 53t-148.5 47q-69 0 -118.5 -45.5t-67.5 -105.5t-12 -118z" />
<glyph unicode="&#xd2;" horiz-adv-x="1798" d="M92 717q0 344 218 544.5t588 200.5t587.5 -200.5t217.5 -544.5t-217.5 -545t-587.5 -201t-588 201t-218 545zM422 717q0 -306 127 -483t349 -177t348.5 177t126.5 483t-126.5 482.5t-348.5 176.5t-349 -176.5t-127 -482.5zM503 1766q39 115 139 166q207 -186 294 -336 l-14 -14q-98 23 -211 73.5t-208 110.5z" />
<glyph unicode="&#xd3;" horiz-adv-x="1798" d="M100 717q0 344 218 544.5t588 200.5t587.5 -200.5t217.5 -544.5t-217.5 -545t-587.5 -201t-588 201t-218 545zM436 717q0 -305 126.5 -482t343.5 -177t343 177t126 482t-126 482t-343 177t-343.5 -177t-126.5 -482zM870 1593q87 150 294 336q100 -52 139 -166 q-95 -60 -208.5 -111t-210.5 -74z" />
<glyph unicode="&#xd4;" horiz-adv-x="1798" d="M100 717q0 344 218 544.5t588 200.5t587.5 -200.5t217.5 -544.5t-217.5 -545t-587.5 -201t-588 201t-218 545zM436 717q0 -305 126.5 -482.5t343.5 -177.5t343 177.5t126 482.5t-126 482t-343 177t-343.5 -177t-126.5 -482zM597 1578l13 -16l292 133l313 -133l14 16 l-314 314h-23z" />
<glyph unicode="&#xd5;" horiz-adv-x="1798" d="M100 717q0 344 218 544.5t588 200.5t587.5 -200.5t217.5 -544.5t-217.5 -545t-587.5 -201t-588 201t-218 545zM436 717q0 -305 126.5 -482.5t343.5 -177.5t343 177.5t126 482.5t-126 482t-343 177t-343.5 -177t-126.5 -482zM596 1588h23q17 42 61 72.5t97 24.5 q49 -6 143.5 -54.5t154.5 -48.5q72 0 123 43.5t68.5 102t5.5 110.5h-23q-14 -33 -59 -60t-99 -21q-57 6 -149.5 53.5t-148.5 47.5q-69 0 -118 -45.5t-67 -106t-12 -118.5z" />
<glyph unicode="&#xd6;" horiz-adv-x="1798" d="M100 717q0 344 218 544.5t588 200.5t587.5 -200.5t217.5 -544.5t-217.5 -545t-587.5 -201t-588 201t-218 545zM436 717q0 -305 126.5 -482.5t343.5 -177.5t343 177.5t126 482.5t-126 482t-343 177t-343.5 -177t-126.5 -482zM539 1695q0 51 36 87t87 36t87 -36t36 -87 t-36 -87t-87 -36t-87 36t-36 87zM1017 1695q0 51 36 87t87 36t87 -36t36 -87t-36 -87t-87 -36t-87 36t-36 87z" />
<glyph unicode="&#xd7;" horiz-adv-x="841" d="M90 385l249 249l-249 250l83 83l249 -250l250 250l82 -83l-249 -250l249 -249l-82 -83l-250 250l-249 -250z" />
<glyph unicode="&#xd8;" horiz-adv-x="1789" d="M92 717q0 344 216 544.5t586 200.5q267 0 457 -107l110 129l74 -61l-103 -122q127 -98 195 -246.5t68 -337.5q0 -345 -216 -545.5t-585 -200.5q-285 0 -485 124l-120 -142l-75 62l116 137q-238 201 -238 565zM418 717q0 -222 69 -380l744 877q-125 162 -337 162 q-222 0 -349 -176.5t-127 -482.5zM537 245q127 -188 357 -188q222 0 348.5 177t126.5 483q0 246 -84 411z" />
<glyph unicode="&#xd9;" horiz-adv-x="1681" d="M78 1413v21h590v-21h-34q-44 0 -75.5 -28t-32.5 -70v-782q0 -218 107 -345t291 -127q187 0 296.5 120t110.5 326v808q-2 42 -33.5 70t-75.5 28h-33v21h429v-21h-34q-44 0 -74.5 -27.5t-33.5 -69.5v-797q0 -254 -157 -401t-432 -147q-324 0 -496 144.5t-172 399.5v797 q-1 44 -32 72.5t-76 28.5h-33zM529 1749q39 115 139 166q209 -188 295 -336l-15 -14q-98 23 -211 73.5t-208 110.5z" />
<glyph unicode="&#xda;" horiz-adv-x="1681" d="M78 1413v21h590v-21h-34q-44 0 -75.5 -28t-32.5 -70v-782q0 -218 107 -345t291 -127q187 0 296.5 120t110.5 326v808q-2 42 -33.5 70t-75.5 28h-33v21h428v-21h-33q-44 0 -74.5 -27.5t-33.5 -69.5v-797q0 -254 -157 -401t-432 -147q-324 0 -496 144.5t-172 399.5v797 q-1 44 -32 72.5t-76 28.5h-33zM888 1575q86 148 295 336q100 -52 139 -166q-95 -60 -208 -110.5t-211 -73.5z" />
<glyph unicode="&#xdb;" horiz-adv-x="1681" d="M78 1413v21h590v-21h-34q-44 0 -75.5 -28t-32.5 -70v-782q0 -218 107 -345t291 -127q187 0 296.5 120t110.5 326v808q-2 42 -33.5 70t-75.5 28h-33v21h429v-21h-34q-44 0 -74.5 -27.5t-33.5 -69.5v-797q0 -254 -157 -401t-432 -147q-324 0 -496 144.5t-172 399.5v797 q-1 44 -32 72.5t-76 28.5h-33zM615 1561l14 -17l292 133l312 -133l14 17l-314 313h-22z" />
<glyph unicode="&#xdc;" horiz-adv-x="1681" d="M78 1413v21h590v-21h-34q-44 0 -75.5 -28t-32.5 -70v-782q0 -218 107 -345t291 -127q187 0 296.5 120t110.5 326v808q-2 42 -33.5 70t-75.5 28h-33v21h428v-21h-33q-44 0 -74.5 -27.5t-33.5 -69.5v-797q0 -254 -157 -401t-432 -147q-324 0 -496 144.5t-172 399.5v797 q-1 44 -32 72.5t-76 28.5h-33zM557 1677q0 51 36 87t87 36t87 -36t36 -87t-36 -87t-87 -36t-87 36t-36 87zM1035 1677q0 51 36 87t87 36t87 -36t36 -87t-36 -87t-87 -36t-87 36t-36 87z" />
<glyph unicode="&#xdd;" horiz-adv-x="1437" d="M-63 1413v21h677v-21h-26q-45 0 -69 -41.5t-2 -84.5l291 -533l305 532q24 42 -2 84.5t-70 42.5h-26v21h489v-21h-29q-61 0 -116.5 -34t-89.5 -85l-403 -643v-502q1 -53 39 -91t92 -38h26v-20h-622l1 20h25q53 0 92 37.5t40 90.5v505l-390 643q-32 49 -88 83t-116 34h-28z M779 1575q86 148 295 336q99 -51 138 -166q-95 -60 -208 -110.5t-211 -73.5z" />
<glyph unicode="&#xde;" horiz-adv-x="1323" d="M87 0l1 20h26q54 0 92 38t39 91v1136q-2 53 -40 90.5t-91 37.5h-26l-1 21h623l-1 -21h-26q-53 0 -91.5 -37t-39.5 -90v-151h209q252 0 376 -107.5t130 -285.5q3 -86 -24 -162t-75 -130.5t-114 -90.5t-138.5 -46.5t-152 7t-150.5 64.5v19q5 0 14 -0.5t36 2t52.5 9t59.5 23 t61.5 41t53.5 65.5t40 94q16 59 13 123q-5 133 -74 210.5t-190 77.5h-127v-899q1 -53 39 -91t92 -38h26l1 -20h-623z" />
<glyph unicode="&#xdf;" horiz-adv-x="2107" d="M100 239q15 96 53 155h16q-9 -143 85 -241.5t254 -97.5q115 1 176 53.5t61 132.5q0 51 -35 91.5t-118 92.5l-292 185q-203 129 -181 335q13 145 112.5 227.5t257.5 82.5q119 0 266 -19h111l-29 -268h-17q0 94 -67 149.5t-188 55.5q-97 0 -158.5 -44.5t-65.5 -114.5 q-2 -27 6.5 -50t30 -43.5t41 -34t55.5 -35.5l324 -199q180 -110 168 -307q-10 -174 -138.5 -273t-342.5 -99q-130 0 -231.5 30.5t-146.5 79.5q-22 60 -7 156zM1155 239q15 96 53 155h16q-9 -143 84.5 -241.5t253.5 -97.5q115 1 176 53.5t61 132.5q0 51 -35 91.5t-118 92.5 l-291 185q-204 129 -182 335q13 145 112.5 227.5t257.5 82.5q119 0 266 -19h111l-28 -268h-18q0 94 -66.5 149.5t-187.5 55.5q-97 0 -158.5 -44.5t-65.5 -114.5q-2 -27 6 -50t29.5 -43.5t41 -34t55.5 -35.5l324 -199q181 -110 169 -307q-10 -174 -139 -273t-343 -99 q-130 0 -231 30.5t-146 79.5q-22 60 -7 156z" />
<glyph unicode="&#xe0;" horiz-adv-x="1318" d="M-55 0v20h16q43 0 86.5 26.5t70.5 80.5l422 910q2 4 14.5 31.5t24 53.5t25 58.5t22 60.5t10.5 44h17l548 -1150q28 -58 71.5 -86.5t89.5 -28.5h16v-20h-602v20h16q41 0 66 31.5t4 82.5l-80 187h-434l-81 -190q-19 -50 6 -80.5t65 -30.5h16v-20h-409zM252 1544 q39 116 138 166q209 -188 295 -336l-14 -14q-98 23 -211 73.5t-208 110.5zM383 402h365l-181 427z" />
<glyph unicode="&#xe1;" horiz-adv-x="1318" d="M-55 0v20h16q43 0 86.5 26.5t70.5 80.5l422 910q2 4 14.5 31.5t24 53.5t25 58.5t22 60.5t10.5 44h17l548 -1150q28 -58 71.5 -86.5t89.5 -28.5h16v-20h-602v20h16q41 0 66 31.5t4 82.5l-80 187h-434l-81 -190q-19 -50 6 -80.5t65 -30.5h16v-20h-409zM383 402h365 l-181 427zM610 1370q87 150 295 337q100 -52 139 -167q-95 -60 -208 -110.5t-211 -73.5z" />
<glyph unicode="&#xe2;" horiz-adv-x="1318" d="M-55 0v20h16q43 0 86.5 26.5t70.5 80.5l422 910q2 4 14.5 31.5t24 53.5t25 58.5t22 60.5t10.5 44h17l548 -1150q28 -58 71.5 -86.5t89.5 -28.5h16v-20h-602v20h16q41 0 66 31.5t4 82.5l-80 187h-434l-81 -190q-19 -50 6 -80.5t65 -30.5h16v-20h-409zM337 1356l14 -16 l292 133l313 -134l13 17l-313 314h-23zM383 402h365l-181 427z" />
<glyph unicode="&#xe3;" horiz-adv-x="1318" d="M-55 0v20h16q43 0 86.5 26.5t70.5 80.5l422 910q2 4 14.5 31.5t24 53.5t25 58.5t22 60.5t10.5 44h17l548 -1150q28 -58 71.5 -86.5t89.5 -28.5h16v-20h-602v20h16q41 0 66 31.5t4 82.5l-80 187h-434l-81 -190q-19 -50 6 -80.5t65 -30.5h16v-20h-409zM336 1366h24 q17 41 61 71.5t97 24.5q43 -5 95 -31t103 -48.5t99 -22.5q72 0 123 43.5t69 102t6 110.5h-23q-14 -33 -59 -60t-99 -21q-57 6 -149.5 53t-148.5 47q-69 0 -118.5 -45.5t-67.5 -105.5t-12 -118zM383 402h365l-181 427z" />
<glyph unicode="&#xe4;" horiz-adv-x="1318" d="M-55 0v20h16q43 0 86.5 26.5t70.5 80.5l422 910q2 4 14.5 31.5t24 53.5t25 58.5t22 60.5t10.5 44h17l548 -1150q28 -58 71.5 -86.5t89.5 -28.5h16v-20h-602v20h16q41 0 66 31.5t4 82.5l-80 187h-434l-81 -190q-19 -50 6 -80.5t65 -30.5h16v-20h-409zM279 1472q0 51 36 87 t87 36t87 -36t36 -87t-36 -87t-87 -36t-87 36t-36 87zM383 402h365l-181 427zM757 1472q0 51 36 87t87 36t87.5 -36t36.5 -87t-36.5 -87t-87.5 -36t-87 36t-36 87z" />
<glyph unicode="&#xe5;" horiz-adv-x="1318" d="M-55 0v20h16q43 0 86.5 26.5t70.5 80.5l422 910q2 4 14.5 31.5t24 53.5t25 58.5t22 60.5t10.5 44h17l548 -1150q28 -58 71.5 -86.5t89.5 -28.5h16v-20h-602v20h16q41 0 66 31.5t4 82.5l-80 187h-434l-81 -190q-19 -50 6 -80.5t65 -30.5h16v-20h-409zM383 402h365 l-181 427zM422 1530q0 74 64 123t160 49q95 0 158 -47.5t63 -121.5q0 -75 -64 -124.5t-159 -49.5q-96 0 -159 48.5t-63 122.5zM542 1530q0 -53 29 -86t73 -33q45 0 74.5 33t29.5 86t-29.5 87t-74.5 34q-44 0 -73 -34t-29 -87z" />
<glyph unicode="&#xe6;" horiz-adv-x="1769" d="M-43 0v20h14q83 0 159 108l700 1004q18 32 5.5 55t-44.5 23h-8v18h635q55 1 119.5 11t90.5 21v-316h-19v18q0 82 -47.5 131t-130.5 52h-295v-510h234q67 3 110 47.5t43 111.5v14h19v-424h-19v12q0 66 -42.5 110.5t-108.5 48.5h-236v-474h245q119 1 206.5 74.5 t126.5 203.5h19l-77 -359h-914v20h17q35 0 60.5 24t26.5 59v452h-289l-278 -441q-19 -40 5 -67t62 -27h16v-20h-405zM608 635h238v378z" />
<glyph unicode="&#xe7;" horiz-adv-x="1396" d="M69 615q0 301 195.5 470.5t542.5 169.5q134 0 255 -26t207 -67v-325h-16q-49 181 -156.5 259t-268.5 78q-218 0 -332.5 -149t-114.5 -406t113.5 -408.5t313.5 -155.5q219 -1 327 103.5t146 354.5h16l24 -308q-63 -103 -189.5 -166t-310.5 -66l-81 -92q29 10 67.5 10 t77 -11t64 -43.5t23.5 -82.5t-34.5 -91t-82.5 -62.5t-110.5 -26.5t-119.5 16l1 21q46 0 88.5 13.5t76.5 47.5t37 84q2 41 -30.5 65t-75.5 24t-83 -13l-10 21l96 125q-309 21 -482.5 187.5t-173.5 449.5z" />
<glyph unicode="&#xe8;" horiz-adv-x="1153" d="M70 0v21h25q45 0 77.5 31t33.5 76v974q-1 46 -33 76.5t-78 30.5h-25v20h721q55 0 121 10t92 21v-326h-21v19q0 89 -49.5 141t-137.5 53h-295v-497h233q71 1 114 46.5t43 115.5v13h21v-433h-21v14q0 69 -42 114.5t-112 47.5h-236v-486h247q127 1 215.5 78.5t129.5 216.5 h20l-79 -377h-5h-959zM202 1544q39 116 139 167q209 -188 295 -336l-15 -15q-98 23 -211 73.5t-208 110.5z" />
<glyph unicode="&#xe9;" horiz-adv-x="1153" d="M70 0v21h25q45 0 77.5 31t33.5 76v974q-1 46 -33 76.5t-78 30.5h-25v20h721q55 0 121 10t92 21v-326h-21v19q0 89 -49.5 141t-137.5 53h-295v-497h233q71 1 114 46.5t43 115.5v13h21v-433h-21v14q0 69 -42 114.5t-112 47.5h-236v-486h247q127 1 215.5 78.5t129.5 216.5 h20l-79 -377h-5h-959zM561 1371q86 148 295 336q99 -51 138 -166q-95 -60 -208 -110.5t-211 -73.5z" />
<glyph unicode="&#xea;" horiz-adv-x="1153" d="M70 0v21h25q45 0 77.5 31t33.5 76v974q-1 45 -33 75.5t-78 30.5h-25v21h721q55 0 121 10t92 21v-326h-21v19q0 89 -49.5 141t-137.5 53h-295v-497h233q71 1 114 46.5t43 115.5v13h21v-433h-21v14q0 69 -42 114.5t-112 47.5h-236v-486h247q127 1 215.5 78.5t129.5 216.5 h20l-79 -377h-5h-959zM288 1356l14 -16l292 133l312 -133l14 16l-314 314h-23z" />
<glyph unicode="&#xeb;" horiz-adv-x="1153" d="M70 0v21h25q45 0 77.5 31t33.5 76v974q-1 46 -33 76.5t-78 30.5h-25v20h721q55 0 121 10t92 21v-326h-21v19q0 89 -49.5 141t-137.5 53h-295v-497h233q71 1 114 46.5t43 115.5v13h21v-433h-21v14q0 69 -42 114.5t-112 47.5h-236v-486h247q127 1 215.5 78.5t129.5 216.5 h20l-79 -377h-5h-959zM230 1473q0 51 36 87t87 36t87 -36t36 -87t-36 -87t-87 -36t-87 36t-36 87zM708 1473q0 51 36 87t87 36t87 -36t36 -87t-36 -87t-87 -36t-87 36t-36 87z" />
<glyph unicode="&#xec;" horiz-adv-x="696" d="M-49 1545q43 117 140 166q207 -186 294 -336l-14 -15q-97 23 -210.5 74t-209.5 111zM70 0v20h23q44 0 75.5 31.5t31.5 77.5v971q0 46 -31.5 77t-75.5 31h-23v21h557v-21h-22q-44 0 -76 -30.5t-33 -76.5v-972q2 -47 33 -78t76 -31h23v-20h-558z" />
<glyph unicode="&#xed;" horiz-adv-x="696" d="M70 0v20h23q44 0 76 31.5t32 77.5v971q0 46 -32 77t-76 31h-23v21h557v-21h-22q-44 0 -76 -30.5t-33 -76.5v-972q2 -47 33 -78t76 -31h23v-20h-558zM311 1371q87 150 294 336q100 -52 139 -166q-95 -60 -208 -110.5t-211 -73.5z" />
<glyph unicode="&#xee;" horiz-adv-x="696" d="M38 1357l13 -17l292 133l313 -133l13 16l-313 314h-23zM70 0v20h23q44 0 76 31.5t32 77.5v971q0 46 -32 77t-76 31h-23v21h557v-21h-22q-44 0 -76 -30.5t-33 -76.5v-972q2 -47 33 -78t76 -31h23v-20h-558z" />
<glyph unicode="&#xef;" horiz-adv-x="696" d="M-20 1473q0 51 36 87t87 36t87 -36t36 -87t-36 -87t-87 -36t-87 36t-36 87zM70 0v20h23q44 0 76 31.5t32 77.5v971q0 46 -32 77t-76 31h-23v21h557v-21h-22q-44 0 -76 -30.5t-33 -76.5v-972q2 -47 33 -78t76 -31h23v-20h-558zM458 1473q0 51 36 87t87 36t87 -36t36 -87 t-36 -87t-87 -36t-87 36t-36 87z" />
<glyph unicode="&#xf0;" horiz-adv-x="1531" d="M67 1208v21h692q330 0 517 -163.5t187 -452.5t-187 -451t-517 -162h-691v20h25q47 0 80.5 31.5t34.5 77.5v446h-134v80h134v446q-1 46 -35 76.5t-82 30.5h-24zM504 82h231q193 0 304 141t111 390q0 251 -111 393t-304 142h-231v-493h258v-80h-258v-493z" />
<glyph unicode="&#xf1;" horiz-adv-x="1595" d="M43 0v20h34q47 0 79.5 30t32.5 75v900q0 62 -5.5 120t-11.5 85l-5 27l20 -1l938 -826v674q0 45 -32 74.5t-79 29.5h-35v21h575v-21h-35q-46 0 -78.5 -29t-34.5 -72v-895q0 -64 5.5 -123.5t10.5 -87.5l6 -28h-18l-941 829v-677q1 -45 33.5 -75t79.5 -30h34v-20h-573z M453 1366h23q17 41 61 71.5t97 24.5q43 -5 95.5 -31t103.5 -48.5t99 -22.5q72 0 123 43.5t69 102t6 110.5h-24q-14 -33 -58.5 -60t-98.5 -21q-57 6 -150 53t-149 47q-53 0 -94.5 -26.5t-64.5 -67.5t-33 -87t-5 -88z" />
<glyph unicode="&#xf2;" horiz-adv-x="1591" d="M71 614q0 295 198.5 468t525.5 173q217 0 381 -77t254.5 -223t90.5 -341q0 -294 -199 -467.5t-527 -173.5q-327 0 -525.5 173.5t-198.5 467.5zM385 614q0 -258 111.5 -409t298.5 -151q188 0 299.5 151t111.5 409q0 259 -111.5 409.5t-299.5 150.5q-187 0 -298.5 -150.5 t-111.5 -409.5zM402 1545q39 115 139 166q209 -188 295 -336l-15 -14q-98 23 -211 73.5t-208 110.5z" />
<glyph unicode="&#xf3;" horiz-adv-x="1591" d="M71 614q0 295 198.5 468t525.5 173q217 0 381 -77t254.5 -223t90.5 -341q0 -294 -199 -467.5t-527 -173.5q-327 0 -525.5 173.5t-198.5 467.5zM385 614q0 -258 111.5 -409t298.5 -151q188 0 299.5 151t111.5 409q0 259 -111.5 409.5t-299.5 150.5q-187 0 -298.5 -150.5 t-111.5 -409.5zM761 1372q86 148 295 336q98 -51 138 -167q-95 -60 -208 -110.5t-211 -73.5z" />
<glyph unicode="&#xf4;" horiz-adv-x="1591" d="M71 614q0 295 198.5 468t525.5 173q217 0 381 -77t254.5 -223t90.5 -341q0 -294 -199 -467.5t-527 -173.5q-327 0 -525.5 173.5t-198.5 467.5zM385 614q0 -258 111.5 -409t298.5 -151q188 0 299.5 151t111.5 409q0 259 -111.5 409.5t-299.5 150.5q-187 0 -298.5 -150.5 t-111.5 -409.5zM488 1357l14 -16l292 133l312 -133l14 16l-314 314h-23z" />
<glyph unicode="&#xf5;" horiz-adv-x="1591" d="M71 614q0 295 198.5 468t525.5 173q217 0 381 -77t254.5 -223t90.5 -341q0 -294 -199 -467.5t-527 -173.5q-327 0 -525.5 173.5t-198.5 467.5zM385 614q0 -258 111.5 -409t298.5 -151q188 0 299.5 151t111.5 409q0 259 -111.5 409.5t-299.5 150.5q-187 0 -298.5 -150.5 t-111.5 -409.5zM487 1367h23q17 42 61 72.5t97 24.5q49 -6 143.5 -54.5t154.5 -48.5q72 0 123 43.5t69 102t6 110.5h-24q-14 -33 -58.5 -60t-98.5 -21q-57 6 -150 53.5t-149 47.5q-69 0 -118 -45.5t-67 -106t-12 -118.5z" />
<glyph unicode="&#xf6;" horiz-adv-x="1591" d="M71 614q0 295 198.5 468t525.5 173q217 0 381 -77t254.5 -223t90.5 -341q0 -294 -199 -467.5t-527 -173.5q-327 0 -525.5 173.5t-198.5 467.5zM385 614q0 -258 111.5 -409t298.5 -151q188 0 299.5 151t111.5 409q0 259 -111.5 409.5t-299.5 150.5q-187 0 -298.5 -150.5 t-111.5 -409.5zM430 1474q0 51 36 87t87 36t87 -36t36 -87t-36 -87t-87 -36t-87 36t-36 87zM908 1474q0 51 36 87t87 36t87 -36t36 -87t-36 -87t-87 -36t-87 36t-36 87z" />
<glyph unicode="&#xf7;" horiz-adv-x="985" d="M82 576v117h823v-117h-823zM399 312q0 38 28 65.5t66 27.5t65.5 -27.5t27.5 -65.5t-27.5 -66t-65.5 -28t-66 28t-28 66zM399 959q0 38 28 65.5t66 27.5t65.5 -27.5t27.5 -65.5t-27.5 -65.5t-65.5 -27.5t-66 27.5t-28 65.5z" />
<glyph unicode="&#xf8;" horiz-adv-x="1591" d="M71 614q0 295 198.5 468t525.5 173q214 0 383 -82l112 134l74 -62l-101 -121q123 -84 190.5 -214.5t67.5 -295.5q0 -294 -199 -467.5t-527 -173.5q-240 0 -417 98l-110 -130l-74 62l102 122q-108 85 -166.5 209.5t-58.5 279.5zM385 614q0 -180 58 -315l631 751 q-107 124 -279 124q-187 0 -298.5 -150.5t-111.5 -409.5zM494 209q113 -155 301 -155t299.5 151t111.5 409q0 210 -76 353z" />
<glyph unicode="&#xf9;" horiz-adv-x="1441" d="M56 1208v21h538v-21h-29q-39 0 -65.5 -24t-26.5 -62v-666q0 -188 87.5 -294.5t242.5 -106.5q160 0 250 100t92 278v690q-1 38 -27.5 61.5t-65.5 23.5h-29v21h379v-21h-28q-39 0 -66 -23.5t-28 -60.5v-677q0 -223 -135 -348.5t-380 -125.5q-291 0 -439.5 123t-148.5 347 v679q0 38 -27 62t-66 24h-28zM382 1544q39 115 139 166q209 -188 295 -336l-15 -14q-98 23 -211 73.5t-208 110.5z" />
<glyph unicode="&#xfa;" horiz-adv-x="1441" d="M56 1208v21h538v-21h-29q-39 0 -65.5 -24t-26.5 -62v-666q0 -188 87.5 -294.5t242.5 -106.5q160 0 250 100t92 278v690q-1 38 -27.5 61.5t-65.5 23.5h-29v21h379v-21h-28q-39 0 -66 -23.5t-28 -60.5v-677q0 -223 -135 -348.5t-380 -125.5q-291 0 -439.5 123t-148.5 347 v679q0 38 -27 62t-66 24h-28zM741 1370q87 150 295 337q98 -51 138 -167q-95 -60 -208 -110.5t-211 -73.5z" />
<glyph unicode="&#xfb;" horiz-adv-x="1441" d="M56 1208v21h538v-21h-29q-39 0 -65.5 -24t-26.5 -62v-666q0 -188 87.5 -294.5t242.5 -106.5q160 0 250 100t92 278v690q-1 38 -27.5 61.5t-65.5 23.5h-28v21h378v-21h-28q-39 0 -66 -23.5t-28 -60.5v-677q0 -223 -135 -348.5t-380 -125.5q-291 0 -439.5 123t-148.5 347 v679q0 38 -27 62t-66 24h-28zM468 1356l14 -16l292 133l312 -134l14 17l-314 314h-23z" />
<glyph unicode="&#xfc;" horiz-adv-x="1441" d="M56 1208v21h538v-21h-29q-39 0 -65.5 -24t-26.5 -62v-666q0 -188 87.5 -294.5t242.5 -106.5q160 0 250 100t92 278v690q-1 38 -27.5 61.5t-65.5 23.5h-29v21h379v-21h-28q-39 0 -66 -23.5t-28 -60.5v-677q0 -223 -135 -348.5t-380 -125.5q-291 0 -439.5 123t-148.5 347 v679q0 38 -27 62t-66 24h-28zM410 1472q0 51 36 87t87 36t87 -36t36 -87t-36 -87t-87 -36t-87 36t-36 87zM888 1472q0 51 36 87t87 36t87 -36t36 -87t-36 -87t-87 -36t-87 36t-36 87z" />
<glyph unicode="&#xfd;" horiz-adv-x="1300" d="M-63 1208v21h622v-21h-23q-39 0 -60.5 -32.5t-5.5 -68.5l273 -470l276 470q17 37 -5 69t-61 32h-22v21h439v-21h-26q-54 0 -102 -28.5t-79 -72.5l-364 -561v-417q1 -46 35 -77.5t81 -31.5h22v-20h-572v20h24q47 0 80.5 31.5t33.5 77.5v418l-362 561q-29 44 -77 72 t-103 28h-24zM697 1370q87 150 295 337q98 -51 138 -167q-95 -60 -208 -110.5t-211 -73.5z" />
<glyph unicode="&#xfe;" horiz-adv-x="1169" d="M89 0v20h24q46 0 78.5 31.5t33.5 77.5v972q-1 46 -33.5 76.5t-78.5 30.5h-24v21h560v-21h-24q-46 0 -78 -30t-33 -75v-122h174q234 0 351 -94t123 -248q3 -79 -20.5 -148.5t-65.5 -118.5t-100.5 -80.5t-123.5 -40t-136.5 9t-137.5 60.5v18q4 -1 11.5 -1t30 1.5t44 7.5 t50 20.5t52 36t45.5 58.5t35 85q13 49 11 109q-3 114 -68.5 179t-179.5 65h-95v-771q1 -46 33 -77.5t78 -31.5h24v-20h-560z" />
<glyph unicode="&#xff;" horiz-adv-x="1300" d="M-64 1208v21h622v-21h-22q-39 0 -60.5 -32.5t-5.5 -68.5l273 -470l276 470q17 37 -5 69t-61 32h-22v21h439v-21h-26q-54 0 -102 -28.5t-79 -72.5l-364 -561v-417q1 -46 35 -77.5t81 -31.5h22v-20h-572v20h24q47 0 80.5 31.5t33.5 77.5v418l-362 561q-29 44 -77 72 t-103 28h-25zM366 1472q0 51 36 87t87 36t87 -36t36 -87t-36 -87t-87 -36t-87 36t-36 87zM844 1472q0 51 36 87t87 36t87 -36t36 -87t-36 -87t-87 -36t-87 36t-36 87z" />
<glyph unicode="&#x152;" horiz-adv-x="2193" d="M92 719q0 344 218 543.5t594 199.5q98 0 231 -18q72 -10 140 -10h508q64 1 139.5 12.5t105.5 24.5v-358h-23v24q0 92 -54 148.5t-146 60.5h-346v-596h275q76 1 125 51t49 125v17l20 1v-474l-20 1v17q0 74 -49 124t-123 52h-277v-576h272q150 0 251 86.5t150 243.5h21 l-95 -418h-5h-594h-5q-232 0 -288 -4q-13 -1 -114 -13t-163 -12q-363 0 -580 201.5t-217 546.5zM413 717q-1 -303 134.5 -481t359.5 -178q100 0 174 37.5t74 85.5v1071q0 49 -73 86.5t-174 37.5q-221 0 -357.5 -175.5t-137.5 -483.5z" />
<glyph unicode="&#x153;" horiz-adv-x="1951" d="M71 618q0 300 191.5 470t524.5 170q82 0 201 -17q67 -10 128 -10h479q55 1 120 11t91 21v-322h-21v20q0 85 -47 135.5t-133 53.5h-310v-500h244q70 1 112 45.5t42 113.5v14h20v-426h-20v14q0 68 -42 112.5t-111 46.5h-245v-489h256q127 1 214 77.5t128 213.5h21l-79 -372 h-718q-49 0 -100 -4q-12 -1 -99 -12t-145 -11q-320 0 -511 172t-191 473zM373 616q-1 -261 113.5 -412t302.5 -151q91 0 154.5 35.5t63.5 80.5v893q0 45 -62 80.5t-154 35.5q-185 0 -301 -148t-117 -414z" />
<glyph unicode="&#x178;" horiz-adv-x="1437" d="M-63 1413v21h677v-21h-26q-45 0 -69 -41.5t-2 -84.5l291 -533l305 532q24 42 -2 84.5t-70 42.5h-26v21h489v-21h-29q-61 0 -116.5 -34.5t-89.5 -85.5l-403 -642v-502q1 -53 39 -91t92 -38h26v-20h-622l1 20h25q53 0 92 37.5t40 90.5v505l-390 643q-32 49 -88 83t-116 34 h-28zM448 1677q0 51 36 87t87 36t87 -36t36 -87t-36 -87t-87 -36t-87 36t-36 87zM926 1677q0 51 36 87t87 36t87 -36t36 -87t-36 -87t-87 -36t-87 36t-36 87z" />
<glyph unicode="&#x2c6;" horiz-adv-x="1228" d="M259 1424l14 -16l292 133l313 -133l13 16l-313 314h-23z" />
<glyph unicode="&#x2dc;" horiz-adv-x="1228" d="M250 1369h23q17 42 61 72.5t97 24.5q49 -6 143 -54.5t154 -48.5q72 0 123 43.5t69 102t6 110.5h-23q-14 -33 -59 -60t-99 -21q-57 6 -149.5 53.5t-148.5 47.5q-69 0 -118 -45.5t-67 -106t-12 -118.5z" />
<glyph unicode="&#x2000;" horiz-adv-x="966" />
<glyph unicode="&#x2001;" horiz-adv-x="1932" />
<glyph unicode="&#x2002;" horiz-adv-x="966" />
<glyph unicode="&#x2003;" horiz-adv-x="1932" />
<glyph unicode="&#x2004;" horiz-adv-x="644" />
<glyph unicode="&#x2005;" horiz-adv-x="483" />
<glyph unicode="&#x2006;" horiz-adv-x="322" />
<glyph unicode="&#x2007;" horiz-adv-x="322" />
<glyph unicode="&#x2008;" horiz-adv-x="241" />
<glyph unicode="&#x2009;" horiz-adv-x="386" />
<glyph unicode="&#x200a;" horiz-adv-x="107" />
<glyph unicode="&#x2010;" horiz-adv-x="778" d="M65 597l17 68h614l18 -68l-18 -68h-614z" />
<glyph unicode="&#x2011;" horiz-adv-x="778" d="M65 597l17 68h614l18 -68l-18 -68h-614z" />
<glyph unicode="&#x2012;" horiz-adv-x="778" d="M65 597l17 68h614l18 -68l-18 -68h-614z" />
<glyph unicode="&#x2013;" horiz-adv-x="1024" d="M0 543v106h1024v-106h-1024z" />
<glyph unicode="&#x2014;" horiz-adv-x="1638" d="M0 543v106h1638v-106h-1638z" />
<glyph unicode="&#x2018;" horiz-adv-x="505" d="M82.5 1342q-3.5 59 11.5 110.5t46 97t72 76t92.5 45t105.5 7.5l7 -25q-51 -20 -78.5 -60t-22 -91.5t47.5 -99.5q46 -53 49.5 -122.5t-42.5 -115.5q-36 -35 -88 -39.5t-100.5 23t-71.5 80.5q-25 55 -28.5 114z" />
<glyph unicode="&#x2019;" horiz-adv-x="493" d="M91 1178q75 29 92.5 98t-41.5 141q-44 51 -47.5 117t40.5 110q34 33 83.5 37t96 -22t68.5 -76q26 -66 27.5 -130.5t-25.5 -122t-68.5 -100t-99.5 -63.5t-119 -13z" />
<glyph unicode="&#x201a;" horiz-adv-x="505" d="M90 -229q51 20 78.5 59.5t22 91.5t-47.5 100q-46 53 -49.5 122.5t42.5 115.5q36 35 88 39.5t100.5 -23t71.5 -80.5q25 -55 28 -114t-12 -110.5t-45.5 -96.5t-71.5 -76t-92.5 -45.5t-105.5 -7.5z" />
<glyph unicode="&#x201c;" horiz-adv-x="929" d="M82.5 1342q-3.5 59 11.5 110.5t46 97t72 76t92.5 45t105.5 7.5l7 -25q-51 -20 -78.5 -60t-22 -91.5t47.5 -99.5q46 -53 49.5 -122.5t-42.5 -115.5q-36 -35 -88 -39.5t-100.5 23t-71.5 80.5q-25 55 -28.5 114zM494.5 1342q-3.5 59 11.5 110.5t46 97t72 76t92.5 45 t105.5 7.5l7 -25q-51 -20 -78.5 -60t-22 -91.5t47.5 -99.5q46 -53 49.5 -122.5t-42.5 -115.5q-36 -35 -88 -39.5t-100.5 23t-71.5 80.5q-25 55 -28.5 114z" />
<glyph unicode="&#x201d;" horiz-adv-x="890" d="M91 1178q75 29 92.5 98t-41.5 141q-44 51 -47.5 117t40.5 110q34 33 83.5 37t96 -22t68.5 -76q26 -66 27.5 -130.5t-25.5 -122t-68.5 -100t-99.5 -63.5t-119 -13zM490 1178q75 29 92.5 98t-41.5 141q-44 51 -47.5 117t40.5 110q34 33 83.5 37t96 -22t68.5 -76 q26 -66 27.5 -130.5t-25.5 -122t-68.5 -100t-99.5 -63.5t-119 -13z" />
<glyph unicode="&#x201e;" horiz-adv-x="917" d="M88 -242q80 30 98.5 104t-44.5 152q-47 54 -50.5 125t43.5 118q37 35 90 39.5t102 -23.5t73 -82q25 -56 28.5 -116t-12 -112.5t-47 -98.5t-73 -77.5t-94 -46.5t-107.5 -8zM493 -242q80 30 98.5 104t-44.5 152q-47 54 -50.5 124.5t43.5 117.5q37 35 90 40t102 -23t73 -82 q25 -56 28.5 -116t-12 -112.5t-47 -98.5t-73 -77.5t-94 -46.5t-107.5 -8z" />
<glyph unicode="&#x2022;" horiz-adv-x="751" d="M125 646q-12 36 0 71q38 114 70 146.5t146 70.5q36 12 72 0q114 -38 146.5 -70.5t70.5 -146.5q12 -35 -2 -76t-22.5 -64t-22 -45.5t-24.5 -33.5t-34.5 -24.5t-46.5 -22t-65 -22.5q-36 -12 -71 0q-114 38 -146.5 70.5t-70.5 146.5z" />
<glyph unicode="&#x2026;" horiz-adv-x="1378" d="M80 127q0 62 43.5 105.5t104.5 43.5t104.5 -43.5t43.5 -105.5q0 -61 -43 -104t-105 -43t-105 43t-43 104zM545 127q0 62 43.5 105.5t104.5 43.5t105 -44t44 -105t-43.5 -104t-105.5 -43t-105 43t-43 104zM1003 127q0 62 43.5 105.5t104.5 43.5t104.5 -43.5t43.5 -105.5 q0 -61 -43 -104t-105 -43t-105 43t-43 104z" />
<glyph unicode="&#x202f;" horiz-adv-x="386" />
<glyph unicode="&#x2039;" horiz-adv-x="641" d="M82 598l420 -417l19 13l-194 404l191 395l-16 10z" />
<glyph unicode="&#x203a;" horiz-adv-x="641" d="M123 194l18 -13l420 417l-420 405l-16 -10l191 -395z" />
<glyph unicode="&#x205f;" horiz-adv-x="483" />
<glyph unicode="&#x20ac;" horiz-adv-x="1449" d="M-57 556l30 86h194q-3 36 -3 75q0 35 3 69h-224l30 86h206q52 262 257 426t496 164q147 0 278 -30.5t179 -90.5l-91 -270h-21q7 70 -10.5 125.5t-50.5 88t-79.5 54t-91 29.5t-92.5 8q-183 0 -302.5 -135.5t-149.5 -368.5h730l-31 -86h-709v-67q0 -39 3 -77h658l-29 -86 h-621q32 -232 153.5 -364t314.5 -132q166 0 263 80.5t139 249.5h18v-290q-61 -63 -192.5 -95t-269.5 -32q-286 0 -490 161.5t-258 421.5h-237z" />
<glyph unicode="&#x2122;" horiz-adv-x="995" d="M20 1334v111q27 -10 70 -10h241q41 0 69 10v-111h-6v6q0 29 -16.5 46t-45.5 18h-69v-335q0 -15 11 -26t26 -11h7v-6h-193v6h7q15 0 25 11t11 26v335h-68q-29 -1 -46 -18t-17 -46v-6h-6zM395 1026v6h9q35 0 43 33l50 377h5l189 -278l171 278h5l58 -376q8 -34 42 -34h10v-6 h-192v6h9q9 0 16 8t7 17l-28 186l-101 -164q-22 -36 -22 -65h-6l-148 223l-19 -182q1 -9 7 -16t15 -7h9v-6h-129z" />
<glyph unicode="&#x25fc;" horiz-adv-x="1228" d="M0 0v1229h1229v-1229h-1229z" />
<glyph unicode="&#xfb01;" horiz-adv-x="1814" d="M70 0v20h25q46 0 78 31t33 77v973q-1 46 -33 76.5t-78 30.5h-25v21h723q55 0 121 10t93 21v-328h-21v19q0 90 -49.5 142.5t-139.5 53.5h-295v-497h235q71 1 113.5 46.5t42.5 115.5v13h22v-433h-22v14q0 69 -42 114.5t-112 47.5h-237v-439q1 -46 33.5 -77.5t79.5 -31.5h24 v-20h-569zM1165 0v21h25q48 0 82.5 31t35.5 77v971q-1 46 -35.5 77.5t-82.5 31.5h-25v20h581v-20h-24q-49 0 -83 -31t-36 -77v-972q1 -46 35.5 -77t83.5 -31h25v-21h-582z" />
<glyph unicode="&#xfb02;" horiz-adv-x="2217" d="M70 0v20h25q46 0 78 31t33 77v973q-1 46 -33 76.5t-78 30.5h-25v21h723q55 0 121 10t93 21v-328h-21v19q0 90 -49.5 142.5t-139.5 53.5h-295v-497h235q71 1 113.5 46.5t42.5 115.5v13h22v-433h-22v14q0 69 -42 114.5t-112 47.5h-237v-439q1 -46 33.5 -77.5t79.5 -31.5h24 v-20h-569zM1165 0v21h25q45 0 77.5 31t33.5 76v972q0 46 -33.5 77.5t-79.5 31.5h-23v20h568v-20h-23q-47 0 -80 -31.5t-34 -77.5v-1017h247q127 1 215 78t129 216h22l-81 -377h-963z" />
</font>
</defs>
</svg>
